<svg width="1044" height="158" viewBox="0 0 1044 158" fill="none" xmlns="http://www.w3.org/2000/svg">
<g filter="url(#filter0_bi_13_4)">
<rect x="0.132812" y="7.01697" width="1043.73" height="143.966" rx="71.983" fill="#002054" fill-opacity="0.14"/>
</g>
<g filter="url(#filter1_f_13_4)">
<path d="M936.256 10.4287C936.256 12.3129 595.883 13.8403 528.362 13.8403C460.84 13.8403 100.028 12.3129 100.028 10.4287C100.028 8.54443 460.84 7.01697 528.362 7.01697C595.883 7.01697 936.256 8.54443 936.256 10.4287Z" fill="#3E83D9"/>
</g>
<g filter="url(#filter2_f_13_4)">
<path d="M952.359 149.613C952.359 150.069 605.432 150.439 536.61 150.439C467.788 150.439 100.028 150.069 100.028 149.613C100.028 149.156 467.788 148.786 536.61 148.786C605.432 148.786 952.359 149.156 952.359 149.613Z" fill="#3E83D9"/>
</g>
<defs>
<filter id="filter0_bi_13_4" x="-62.5672" y="-55.683" width="1169.13" height="269.366" filterUnits="userSpaceOnUse" color-interpolation-filters="sRGB">
<feFlood flood-opacity="0" result="BackgroundImageFix"/>
<feGaussianBlur in="BackgroundImageFix" stdDeviation="31.35"/>
<feComposite in2="SourceAlpha" operator="in" result="effect1_backgroundBlur_13_4"/>
<feBlend mode="normal" in="SourceGraphic" in2="effect1_backgroundBlur_13_4" result="shape"/>
<feColorMatrix in="SourceAlpha" type="matrix" values="0 0 0 0 0 0 0 0 0 0 0 0 0 0 0 0 0 0 127 0" result="hardAlpha"/>
<feOffset dy="2"/>
<feGaussianBlur stdDeviation="8.7"/>
<feComposite in2="hardAlpha" operator="arithmetic" k2="-1" k3="1"/>
<feColorMatrix type="matrix" values="0 0 0 0 0.271995 0 0 0 0 0.535629 0 0 0 0 0.959735 0 0 0 0.27 0"/>
<feBlend mode="normal" in2="shape" result="effect2_innerShadow_13_4"/>
</filter>
<filter id="filter1_f_13_4" x="93.4283" y="0.416968" width="849.428" height="20.0234" filterUnits="userSpaceOnUse" color-interpolation-filters="sRGB">
<feFlood flood-opacity="0" result="BackgroundImageFix"/>
<feBlend mode="normal" in="SourceGraphic" in2="BackgroundImageFix" result="shape"/>
<feGaussianBlur stdDeviation="3.3" result="effect1_foregroundBlur_13_4"/>
</filter>
<filter id="filter2_f_13_4" x="93.4283" y="142.186" width="865.531" height="14.8534" filterUnits="userSpaceOnUse" color-interpolation-filters="sRGB">
<feFlood flood-opacity="0" result="BackgroundImageFix"/>
<feBlend mode="normal" in="SourceGraphic" in2="BackgroundImageFix" result="shape"/>
<feGaussianBlur stdDeviation="3.3" result="effect1_foregroundBlur_13_4"/>
</filter>
</defs>
</svg>
