<svg width="350" height="853" viewBox="0 0 350 853" fill="none" xmlns="http://www.w3.org/2000/svg">
<g filter="url(#filter0_bi_110_875)">
<rect x="4.77441" y="0.658447" width="340.181" height="851.485" rx="50.4456" fill="#131B2C"/>
</g>
<g filter="url(#filter1_f_110_875)">
<path d="M343.992 154.762C344.524 154.762 344.956 371.531 344.956 414.533C344.956 457.535 344.524 687.32 343.992 687.32C343.459 687.32 343.027 457.535 343.027 414.533C343.027 371.531 343.459 154.762 343.992 154.762Z" fill="#3E83D9"/>
</g>
<g filter="url(#filter2_f_110_875)">
<path d="M5.73862 160.122C6.27113 160.122 6.70282 376.89 6.70282 419.892C6.70282 462.894 6.27113 692.679 5.73862 692.679C5.2061 692.679 4.77441 462.894 4.77441 419.892C4.77441 376.89 5.2061 160.122 5.73862 160.122Z" fill="#3E83D9"/>
</g>
<defs>
<filter id="filter0_bi_110_875" x="-37.968" y="-42.084" width="425.666" height="936.969" filterUnits="userSpaceOnUse" color-interpolation-filters="sRGB">
<feFlood flood-opacity="0" result="BackgroundImageFix"/>
<feGaussianBlur in="BackgroundImageFix" stdDeviation="21.3712"/>
<feComposite in2="SourceAlpha" operator="in" result="effect1_backgroundBlur_110_875"/>
<feBlend mode="normal" in="SourceGraphic" in2="effect1_backgroundBlur_110_875" result="shape"/>
<feColorMatrix in="SourceAlpha" type="matrix" values="0 0 0 0 0 0 0 0 0 0 0 0 0 0 0 0 0 0 127 0" result="hardAlpha"/>
<feOffset dy="1.36339"/>
<feGaussianBlur stdDeviation="5.93077"/>
<feComposite in2="hardAlpha" operator="arithmetic" k2="-1" k3="1"/>
<feColorMatrix type="matrix" values="0 0 0 0 0.271995 0 0 0 0 0.535629 0 0 0 0 0.959735 0 0 0 0.27 0"/>
<feBlend mode="normal" in2="shape" result="effect2_innerShadow_110_875"/>
</filter>
<filter id="filter1_f_110_875" x="338.528" y="150.263" width="10.9271" height="541.556" filterUnits="userSpaceOnUse" color-interpolation-filters="sRGB">
<feFlood flood-opacity="0" result="BackgroundImageFix"/>
<feBlend mode="normal" in="SourceGraphic" in2="BackgroundImageFix" result="shape"/>
<feGaussianBlur stdDeviation="2.2496" result="effect1_foregroundBlur_110_875"/>
</filter>
<filter id="filter2_f_110_875" x="0.275211" y="155.623" width="10.9271" height="541.556" filterUnits="userSpaceOnUse" color-interpolation-filters="sRGB">
<feFlood flood-opacity="0" result="BackgroundImageFix"/>
<feBlend mode="normal" in="SourceGraphic" in2="BackgroundImageFix" result="shape"/>
<feGaussianBlur stdDeviation="2.2496" result="effect1_foregroundBlur_110_875"/>
</filter>
</defs>
</svg>
