<svg width="1045" height="526" viewBox="0 0 1045 526" fill="none" xmlns="http://www.w3.org/2000/svg">
<g filter="url(#filter0_bi_13_3)">
<rect x="0.867188" y="7.64651" width="1043.73" height="515.193" rx="74" fill="#002054" fill-opacity="0.14"/>
</g>
<g filter="url(#filter1_f_13_3)">
<path d="M690.716 10.5398C690.716 12.424 550.928 13.9514 523.197 13.9514C495.467 13.9514 347.284 12.424 347.284 10.5398C347.284 8.65554 495.467 7.12808 523.197 7.12808C550.928 7.12808 690.716 8.65554 690.716 10.5398Z" fill="#3E83D9"/>
</g>
<g filter="url(#filter2_f_13_3)">
<path d="M798.729 516.08C798.729 517.714 571.011 519.039 525.837 519.039C480.663 519.039 239.27 517.714 239.27 516.08C239.27 514.447 480.663 513.122 525.837 513.122C571.011 513.122 798.729 514.447 798.729 516.08Z" fill="#3E83D9"/>
</g>
<defs>
<filter id="filter0_bi_13_3" x="-61.8328" y="-55.0535" width="1169.13" height="640.593" filterUnits="userSpaceOnUse" color-interpolation-filters="sRGB">
<feFlood flood-opacity="0" result="BackgroundImageFix"/>
<feGaussianBlur in="BackgroundImageFix" stdDeviation="31.35"/>
<feComposite in2="SourceAlpha" operator="in" result="effect1_backgroundBlur_13_3"/>
<feBlend mode="normal" in="SourceGraphic" in2="effect1_backgroundBlur_13_3" result="shape"/>
<feColorMatrix in="SourceAlpha" type="matrix" values="0 0 0 0 0 0 0 0 0 0 0 0 0 0 0 0 0 0 127 0" result="hardAlpha"/>
<feOffset dy="2"/>
<feGaussianBlur stdDeviation="8.7"/>
<feComposite in2="hardAlpha" operator="arithmetic" k2="-1" k3="1"/>
<feColorMatrix type="matrix" values="0 0 0 0 0.271995 0 0 0 0 0.535629 0 0 0 0 0.959735 0 0 0 0.27 0"/>
<feBlend mode="normal" in2="shape" result="effect2_innerShadow_13_3"/>
</filter>
<filter id="filter1_f_13_3" x="340.684" y="0.528082" width="356.632" height="20.0234" filterUnits="userSpaceOnUse" color-interpolation-filters="sRGB">
<feFlood flood-opacity="0" result="BackgroundImageFix"/>
<feBlend mode="normal" in="SourceGraphic" in2="BackgroundImageFix" result="shape"/>
<feGaussianBlur stdDeviation="3.3" result="effect1_foregroundBlur_13_3"/>
</filter>
<filter id="filter2_f_13_3" x="232.67" y="506.522" width="572.66" height="19.1167" filterUnits="userSpaceOnUse" color-interpolation-filters="sRGB">
<feFlood flood-opacity="0" result="BackgroundImageFix"/>
<feBlend mode="normal" in="SourceGraphic" in2="BackgroundImageFix" result="shape"/>
<feGaussianBlur stdDeviation="3.3" result="effect1_foregroundBlur_13_3"/>
</filter>
</defs>
</svg>
