<svg width="1404" height="871" viewBox="0 0 1404 871" fill="none" xmlns="http://www.w3.org/2000/svg">
<g filter="url(#filter0_bi_110_868)">
<rect x="5.16602" y="0.0598145" width="1394.06" height="870.671" rx="50.4456" fill="#131B2C"/>
</g>
<g filter="url(#filter1_f_110_868)">
<path d="M1395.27 157.636C1397.46 157.636 1399.22 379.289 1399.22 423.26C1399.22 467.231 1397.46 702.194 1395.27 702.194C1393.09 702.194 1391.32 467.231 1391.32 423.26C1391.32 379.289 1393.09 157.636 1395.27 157.636Z" fill="#3E83D9"/>
</g>
<g filter="url(#filter2_f_110_868)">
<path d="M9.11731 163.116C11.2995 163.116 13.0686 384.769 13.0686 428.74C13.0686 472.711 11.2995 707.674 9.11731 707.674C6.93507 707.674 5.16602 472.711 5.16602 428.74C5.16602 384.769 6.93507 163.116 9.11731 163.116Z" fill="#3E83D9"/>
</g>
<defs>
<filter id="filter0_bi_110_868" x="-37.5764" y="-42.6826" width="1479.54" height="956.156" filterUnits="userSpaceOnUse" color-interpolation-filters="sRGB">
<feFlood flood-opacity="0" result="BackgroundImageFix"/>
<feGaussianBlur in="BackgroundImageFix" stdDeviation="21.3712"/>
<feComposite in2="SourceAlpha" operator="in" result="effect1_backgroundBlur_110_868"/>
<feBlend mode="normal" in="SourceGraphic" in2="effect1_backgroundBlur_110_868" result="shape"/>
<feColorMatrix in="SourceAlpha" type="matrix" values="0 0 0 0 0 0 0 0 0 0 0 0 0 0 0 0 0 0 127 0" result="hardAlpha"/>
<feOffset dy="1.36339"/>
<feGaussianBlur stdDeviation="5.93077"/>
<feComposite in2="hardAlpha" operator="arithmetic" k2="-1" k3="1"/>
<feColorMatrix type="matrix" values="0 0 0 0 0.271995 0 0 0 0 0.535629 0 0 0 0 0.959735 0 0 0 0.27 0"/>
<feBlend mode="normal" in2="shape" result="effect2_innerShadow_110_868"/>
</filter>
<filter id="filter1_f_110_868" x="1386.82" y="153.137" width="16.9007" height="553.556" filterUnits="userSpaceOnUse" color-interpolation-filters="sRGB">
<feFlood flood-opacity="0" result="BackgroundImageFix"/>
<feBlend mode="normal" in="SourceGraphic" in2="BackgroundImageFix" result="shape"/>
<feGaussianBlur stdDeviation="2.2496" result="effect1_foregroundBlur_110_868"/>
</filter>
<filter id="filter2_f_110_868" x="0.666813" y="158.617" width="16.9007" height="553.556" filterUnits="userSpaceOnUse" color-interpolation-filters="sRGB">
<feFlood flood-opacity="0" result="BackgroundImageFix"/>
<feBlend mode="normal" in="SourceGraphic" in2="BackgroundImageFix" result="shape"/>
<feGaussianBlur stdDeviation="2.2496" result="effect1_foregroundBlur_110_868"/>
</filter>
</defs>
</svg>
