<svg width="868" height="444" viewBox="0 0 868 444" fill="none" xmlns="http://www.w3.org/2000/svg">
<g filter="url(#filter0_bi_53_702)">
<rect x="6.70312" y="0.613281" width="854.036" height="442.43" rx="74" fill="#002054" fill-opacity="0.14"/>
</g>
<g filter="url(#filter1_f_53_702)">
<path d="M858.319 80.6852C859.656 80.6852 860.739 193.318 860.739 215.662C860.739 238.005 859.656 357.401 858.319 357.401C856.982 357.401 855.898 238.005 855.898 215.662C855.898 193.318 856.982 80.6852 858.319 80.6852Z" fill="#3E83D9"/>
</g>
<g filter="url(#filter2_f_53_702)">
<path d="M9.12379 83.4703C10.4607 83.4703 11.5445 196.103 11.5445 218.447C11.5445 240.79 10.4607 360.186 9.12379 360.186C7.78689 360.186 6.70313 240.79 6.70313 218.447C6.70313 196.103 7.78689 83.4703 9.12379 83.4703Z" fill="#3E83D9"/>
</g>
<defs>
<filter id="filter0_bi_53_702" x="-55.9969" y="-62.0867" width="979.436" height="567.83" filterUnits="userSpaceOnUse" color-interpolation-filters="sRGB">
<feFlood flood-opacity="0" result="BackgroundImageFix"/>
<feGaussianBlur in="BackgroundImageFix" stdDeviation="31.35"/>
<feComposite in2="SourceAlpha" operator="in" result="effect1_backgroundBlur_53_702"/>
<feBlend mode="normal" in="SourceGraphic" in2="effect1_backgroundBlur_53_702" result="shape"/>
<feColorMatrix in="SourceAlpha" type="matrix" values="0 0 0 0 0 0 0 0 0 0 0 0 0 0 0 0 0 0 127 0" result="hardAlpha"/>
<feOffset dy="2"/>
<feGaussianBlur stdDeviation="8.7"/>
<feComposite in2="hardAlpha" operator="arithmetic" k2="-1" k3="1"/>
<feColorMatrix type="matrix" values="0 0 0 0 0.271995 0 0 0 0 0.535629 0 0 0 0 0.959735 0 0 0 0.27 0"/>
<feBlend mode="normal" in2="shape" result="effect2_innerShadow_53_702"/>
</filter>
<filter id="filter1_f_53_702" x="849.298" y="74.0852" width="18.0413" height="289.916" filterUnits="userSpaceOnUse" color-interpolation-filters="sRGB">
<feFlood flood-opacity="0" result="BackgroundImageFix"/>
<feBlend mode="normal" in="SourceGraphic" in2="BackgroundImageFix" result="shape"/>
<feGaussianBlur stdDeviation="3.3" result="effect1_foregroundBlur_53_702"/>
</filter>
<filter id="filter2_f_53_702" x="0.103125" y="76.8703" width="18.0413" height="289.916" filterUnits="userSpaceOnUse" color-interpolation-filters="sRGB">
<feFlood flood-opacity="0" result="BackgroundImageFix"/>
<feBlend mode="normal" in="SourceGraphic" in2="BackgroundImageFix" result="shape"/>
<feGaussianBlur stdDeviation="3.3" result="effect1_foregroundBlur_53_702"/>
</filter>
</defs>
</svg>
