<svg width="136" height="135" viewBox="0 0 136 135" fill="none" xmlns="http://www.w3.org/2000/svg">
<path d="M68.9453 83.2349C68.9586 83.2791 68.9586 83.2835 68.9453 83.2349V83.2349Z" fill="#3E83D9"/>
<path d="M71.8768 83.2349C71.8679 83.2791 71.8679 83.2835 71.8768 83.2349V83.2349Z" fill="#3E83D9"/>
<path d="M68.1801 0.310608C31.0226 0.310608 0.900391 30.4328 0.900391 67.5903C0.900391 104.748 31.0226 134.87 68.1801 134.87C105.338 134.87 135.46 104.748 135.46 67.5903C135.46 30.4328 105.342 0.310608 68.1801 0.310608ZM105.369 79.0652L95.4944 104.664L70.2584 114.317L45.0976 104.664L35.2234 79.0652C25.6278 53.8027 26.3442 53.2412 36.4881 45.3038C36.948 44.9456 37.43 44.5697 37.9297 44.1762L37.4919 44.0347C36.6163 43.7428 35.9575 42.938 35.7364 41.9873L34.2727 35.0405C34.0516 34.0146 34.4186 33.0639 35.1483 32.4094L40.6359 27.7266C41.3655 27.1429 42.3914 26.9218 43.2669 27.2137L50.2138 29.5529C51.1645 29.8447 51.8234 30.6495 52.0445 31.6002L52.5044 33.8952L56.2895 31.3084C59.8713 28.0184 64.5541 26.1878 69.4536 26.2629H71.0632C75.9627 26.1878 80.6455 28.0184 84.2273 31.3084L88.0744 33.9394L88.5431 31.6002C88.7642 30.6495 89.4187 29.8447 90.3694 29.5529L97.3162 27.2137C98.1962 26.9218 99.2177 27.1385 99.9473 27.7266L105.435 32.4094C106.165 33.0683 106.532 34.019 106.31 35.0405L104.922 41.9873C104.701 42.938 104.046 43.7428 103.091 44.0347L102.605 44.1939C103.096 44.583 103.573 44.9545 104.029 45.3126C114.168 53.25 114.889 53.8116 105.36 79.0741L105.369 79.0652Z" fill="#3E83D9"/>
<path d="M91.0374 53.612L72.0938 52.8072L75.0919 54.5627C76.7766 55.7345 78.824 56.3934 80.8714 56.4641L91.2585 57.1937C91.4796 57.1937 91.6255 57.4148 91.4796 57.5608C90.8959 58.2904 88.8485 59.5374 85.0412 60.121C83.4316 60.4129 78.3111 60.7047 78.3111 60.7047H78.2359C77.7981 60.7799 77.4311 61.1425 77.4311 61.6555L78.6029 66.2631C78.6781 66.409 78.457 66.4842 78.3111 66.409L72.169 62.0225C71.9258 61.8987 71.6826 61.8279 71.4394 61.8102L71.2934 61.8058H69.392C69.1488 61.8323 68.9056 61.9031 68.6624 62.0269L62.5203 66.4135C62.3744 66.4842 62.1533 66.4135 62.2285 66.2675L63.4003 61.6599C63.4003 61.1469 63.0333 60.7843 62.5955 60.7092H62.5203C62.5203 60.7092 57.3997 60.4173 55.7901 60.1255C51.9873 59.5418 49.9399 58.2948 49.3518 57.5652C49.2059 57.4192 49.3518 57.1982 49.5729 57.1982L59.96 56.4685C62.0074 56.3934 64.0547 55.7389 65.7395 54.5671L68.7376 52.8116L49.794 53.6164C46.283 53.9082 43.7227 56.5437 44.0897 59.5418L45.4074 65.6131C45.4826 66.1968 45.9911 66.5638 46.5041 66.639L58.8634 68.3945C58.9386 68.3945 59.0093 68.4697 59.0093 68.5404C59.0093 68.5714 59.0093 68.5891 59.0049 68.6067C58.996 68.6289 58.9784 68.6465 58.9386 68.6863C55.7194 70.8089 52.4295 72.6351 48.9185 74.174C48.4807 74.3951 51.6247 82.2926 53.672 86.4625C54.2027 87.5238 54.8394 88.6072 55.4541 89.6552C55.8565 90.345 56.25 91.0171 56.5994 91.6539L59.3808 96.4826C59.4559 96.5534 59.6018 96.6285 59.6726 96.5534L59.7434 96.4826C60.0352 95.8237 60.2563 95.0941 60.4022 94.4353C60.6233 93.7056 60.6233 92.8257 60.4774 92.0961L60.4022 91.729C60.4022 91.6583 60.4774 91.5831 60.5481 91.5831H60.6233L64.9391 92.609C66.6946 93.1219 68.742 93.3386 70.5727 93.3386C72.4033 93.3386 74.1544 93.1175 75.9099 92.609L80.2257 91.5831H80.2965C80.3717 91.5831 80.4424 91.6583 80.4424 91.729L80.3673 92.0961C80.2213 92.8257 80.2213 93.7056 80.4424 94.4353C80.5883 95.0941 80.8094 95.8237 81.1013 96.4826L81.172 96.5534C81.2472 96.6285 81.3931 96.5534 81.4639 96.4826L84.2453 91.6539C84.5946 91.0171 84.9882 90.345 85.3906 89.6552C86.0052 88.6072 86.642 87.5194 87.1726 86.4625C89.22 82.2926 92.364 74.3951 91.9262 74.174C88.4152 72.6396 85.1253 70.8089 81.9061 68.6863C81.8619 68.6421 81.8442 68.6244 81.8397 68.6067C81.8353 68.5891 81.8353 68.5714 81.8353 68.5404C81.8353 68.4697 81.9105 68.3945 81.9813 68.3945L94.3406 66.639C94.8535 66.5682 95.3664 66.2012 95.4372 65.6131L96.7549 59.5418C97.122 56.5437 94.5617 53.9082 91.0506 53.6164L91.0374 53.612ZM70.5594 85.7948H59.1508L60.6852 82.7216C60.9771 82.2838 61.49 82.0627 62.003 82.0627V83.2345H68.9498C68.8791 82.9471 68.4413 81.0324 68.4413 80.9661C64.9303 80.0905 61.2733 77.8221 60.9815 75.1158C60.2917 69.2656 65.0408 68.9207 70.4179 68.8986C75.795 68.9207 80.5397 69.2656 79.8543 75.1158C79.5625 77.8221 75.9055 80.0905 72.3945 80.9661C72.3945 81.028 71.9567 82.9471 71.886 83.2345H78.8328V82.0627C79.3458 82.0627 79.8587 82.2838 80.1506 82.7216L81.685 85.7948H70.5682H70.5594Z" fill="#3E83D9"/>
</svg>
