<svg width="135" height="135" viewBox="0 0 135 135" fill="none" xmlns="http://www.w3.org/2000/svg">
<path d="M68.3047 82.9485C68.3183 82.9938 68.3183 82.9984 68.3047 82.9485V82.9485Z" fill="#444444"/>
<path d="M71.2358 82.9485C71.2267 82.9938 71.2267 82.9984 71.2358 82.9485V82.9485Z" fill="#444444"/>
<path d="M67.5391 0.0234985C30.3815 0.0234985 0.259277 30.1458 0.259277 67.3034C0.259277 104.461 30.3815 134.583 67.5391 134.583C104.697 134.583 134.819 104.461 134.819 67.3034C134.819 30.1458 104.701 0.0234985 67.5391 0.0234985ZM104.728 78.7783L94.8535 104.377L69.6174 114.03L44.4566 104.377L34.5824 78.7783C24.9868 53.5157 25.7031 52.9541 35.8471 45.0168C36.307 44.6586 36.7889 44.2827 37.2886 43.8892L36.8508 43.7477C35.9753 43.4558 35.3164 42.651 35.0953 41.7003L33.6317 34.7534C33.4106 33.7275 33.7776 32.7768 34.5072 32.1224L39.9949 27.4395C40.7245 26.8558 41.7504 26.6347 42.6259 26.9266L49.5728 29.2658C50.5235 29.5577 51.1824 30.3624 51.4035 31.3132L51.8633 33.6082L55.6485 31.0213C59.2303 27.7314 63.9131 25.9007 68.8126 25.9759H70.4222C75.3217 25.9007 80.0046 27.7314 83.5864 31.0213L87.4334 33.6524L87.9022 31.3132C88.1233 30.3624 88.7777 29.5577 89.7284 29.2658L96.6753 26.9266C97.5553 26.6347 98.5767 26.8514 99.3064 27.4395L104.794 32.1224C105.524 32.7812 105.891 33.732 105.67 34.7534L104.281 41.7003C104.06 42.651 103.406 43.4558 102.45 43.7477L101.964 43.9069C102.455 44.296 102.932 44.6674 103.388 45.0256C113.527 52.963 114.248 53.5246 104.719 78.7871L104.728 78.7783Z" fill="#444444"/>
<path d="M90.3959 53.3255L71.4523 52.5207L74.4503 54.2762C76.1351 55.448 78.1825 56.1069 80.2298 56.1777L90.617 56.9073C90.8381 56.9073 90.984 57.1284 90.8381 57.2743C90.2544 58.0039 88.207 59.2509 84.3997 59.8346C82.7901 60.1265 77.6695 60.4183 77.6695 60.4183H77.5943C77.1566 60.4935 76.7896 60.8561 76.7896 61.369L77.9614 65.9767C78.0365 66.1226 77.8154 66.1978 77.6695 66.1226L71.5274 61.736C71.2842 61.6122 71.041 61.5415 70.7978 61.5238L70.6519 61.5194H68.7505C68.5072 61.5459 68.264 61.6167 68.0208 61.7405L61.8788 66.127C61.7328 66.1978 61.5117 66.127 61.5869 65.9811L62.7587 61.3735C62.7587 60.8605 62.3917 60.4979 61.9539 60.4227H61.8788C61.8788 60.4227 56.7581 60.1309 55.1486 59.839C51.3457 59.2553 49.2983 58.0083 48.7102 57.2787C48.5643 57.1328 48.7102 56.9117 48.9313 56.9117L59.3185 56.1821C61.3658 56.1069 63.4132 55.4525 65.0979 54.2807L68.096 52.5251L49.1524 53.3299C45.6414 53.6218 43.0811 56.2573 43.4481 59.2553L44.7658 65.3267C44.841 65.9104 45.3495 66.2774 45.8625 66.3526L58.2218 68.1081C58.297 68.1081 58.3677 68.1832 58.3677 68.254C58.3677 68.2849 58.3677 68.3026 58.3633 68.3203C58.3545 68.3424 58.3368 68.3601 58.297 68.3999C55.0778 70.5225 51.7879 72.3487 48.2769 73.8876C47.8391 74.1086 50.9831 82.0062 53.0304 86.1761C53.5611 87.2374 54.1978 88.3208 54.8125 89.3688C55.2149 90.0586 55.6084 90.7307 55.9578 91.3675L58.7392 96.1963C58.8144 96.267 58.9603 96.3422 59.031 96.267L59.1018 96.1963C59.3936 95.5374 59.6147 94.8078 59.7606 94.1489C59.9817 93.4193 59.9817 92.5393 59.8358 91.8097L59.7606 91.4427C59.7606 91.3719 59.8358 91.2967 59.9066 91.2967H59.9817L64.2976 92.3226C66.0531 92.8356 68.1004 93.0522 69.9311 93.0522C71.7618 93.0522 73.5129 92.8311 75.2684 92.3226L79.5842 91.2967H79.655C79.7301 91.2967 79.8009 91.3719 79.8009 91.4427L79.7257 91.8097C79.5798 92.5393 79.5798 93.4193 79.8009 94.1489C79.9468 94.8078 80.1679 95.5374 80.4598 96.1963L80.5305 96.267C80.6057 96.3422 80.7516 96.267 80.8224 96.1963L83.6038 91.3675C83.9531 90.7307 84.3466 90.0586 84.749 89.3688C85.3637 88.3208 86.0005 87.233 86.5311 86.1761C88.5784 82.0062 91.7224 74.1086 91.2847 73.8876C87.7737 72.3531 84.4837 70.5225 81.2646 68.3999C81.2203 68.3557 81.2026 68.338 81.1982 68.3203C81.1938 68.3026 81.1938 68.2849 81.1938 68.254C81.1938 68.1832 81.269 68.1081 81.3397 68.1081L93.6991 66.3526C94.212 66.2818 94.7249 65.9148 94.7957 65.3267L96.1134 59.2553C96.4805 56.2573 93.9201 53.6218 90.4091 53.3299L90.3959 53.3255ZM69.9178 85.5084H58.5092L60.0436 82.4352C60.3355 81.9974 60.8484 81.7763 61.3614 81.7763V82.9481H68.3083C68.2375 82.6607 67.7997 80.746 67.7997 80.6797C64.2887 79.8041 60.6318 77.5356 60.3399 74.8294C59.6501 68.9792 64.3993 68.6343 69.7764 68.6122C75.1534 68.6343 79.8982 68.9792 79.2128 74.8294C78.9209 77.5356 75.264 79.8041 71.753 80.6797C71.753 80.7416 71.3152 82.6607 71.2444 82.9481H78.1913V81.7763C78.7043 81.7763 79.2172 81.9974 79.509 82.4352L81.0435 85.5084H69.9267H69.9178Z" fill="#444444"/>
</svg>
