<svg width="136" height="136" viewBox="0 0 136 136" fill="none" xmlns="http://www.w3.org/2000/svg">
<path d="M68.7285 83.523C68.742 83.5679 68.742 83.5724 68.7285 83.523V83.523Z" fill="white"/>
<path d="M71.661 83.523C71.6521 83.5679 71.6521 83.5724 71.661 83.523V83.523Z" fill="white"/>
<path d="M67.9643 0.598267C30.8068 0.598267 0.68457 30.7205 0.68457 67.878C0.68457 105.035 30.8068 135.158 67.9643 135.158C105.122 135.158 135.244 105.035 135.244 67.878C135.244 30.7205 105.126 0.598267 67.9643 0.598267ZM105.153 79.3529L95.2786 104.951L70.0426 114.605L44.8818 104.951L35.0076 79.3529C25.412 54.0904 26.1284 53.5288 36.2723 45.5914C36.7322 45.2333 37.2142 44.8574 37.7138 44.4638L37.2761 44.3223C36.4005 44.0305 35.7417 43.2257 35.5206 42.275L34.0569 35.3281C33.8358 34.3022 34.2028 33.3515 34.9324 32.6971L40.4201 28.0143C41.1497 27.4306 42.1756 27.2095 43.0511 27.5013L49.998 29.8405C50.9487 30.1324 51.6076 30.9371 51.8286 31.8879L52.2885 34.1828L56.0737 31.596C59.6555 28.3061 64.3383 26.4754 69.2378 26.5506H70.8474C75.7469 26.4754 80.4297 28.3061 84.0115 31.596L87.8586 34.2271L88.3273 31.8879C88.5484 30.9371 89.2028 30.1324 90.1535 29.8405L97.1004 27.5013C97.9804 27.2095 99.0018 27.4261 99.7315 28.0143L105.219 32.6971C105.949 33.3559 106.316 34.3067 106.095 35.3281L104.706 42.275C104.485 43.2257 103.831 44.0305 102.875 44.3223L102.389 44.4815C102.88 44.8707 103.357 45.2421 103.813 45.6003C113.952 53.5377 114.673 54.0992 105.144 79.3617L105.153 79.3529Z" fill="white"/>
<path d="M90.8206 53.9001L71.877 53.0953L74.8751 54.8508C76.5598 56.0227 78.6072 56.6815 80.6545 56.7523L91.0417 57.4819C91.2628 57.4819 91.4087 57.703 91.2628 57.8489C90.6791 58.5785 88.6317 59.8255 84.8244 60.4092C83.2148 60.7011 78.0942 60.9929 78.0942 60.9929H78.0191C77.5813 61.0681 77.2143 61.4307 77.2143 61.9436L78.3861 66.5513C78.4613 66.6972 78.2402 66.7724 78.0942 66.6972L71.9522 62.3106C71.709 62.1868 71.4658 62.1161 71.2226 62.0984L71.0766 62.094H69.1752C68.932 62.1205 68.6888 62.1913 68.4456 62.3151L62.3035 66.7016C62.1576 66.7724 61.9365 66.7016 62.0117 66.5557L63.1835 61.948C63.1835 61.4351 62.8165 61.0725 62.3787 60.9973H62.3035C62.3035 60.9973 57.1829 60.7055 55.5733 60.4136C51.7705 59.8299 49.7231 58.583 49.135 57.8533C48.9891 57.7074 49.135 57.4863 49.3561 57.4863L59.7432 56.7567C61.7906 56.6815 63.8379 56.0271 65.5227 54.8553L68.5208 53.0998L49.5772 53.9046C46.0662 54.1964 43.5059 56.8319 43.8729 59.8299L45.1906 65.9013C45.2658 66.485 45.7743 66.852 46.2873 66.9271L58.6466 68.6826C58.7218 68.6826 58.7925 68.7578 58.7925 68.8286C58.7925 68.8595 58.7925 68.8772 58.7881 68.8949C58.7792 68.917 58.7616 68.9347 58.7218 68.9745C55.5026 71.097 52.2127 72.9233 48.7017 74.4621C48.2639 74.6832 51.4079 82.5808 53.4552 86.7507C53.9859 87.8119 54.6226 88.8953 55.2373 89.9433C55.6397 90.6331 56.0332 91.3053 56.3826 91.942L59.1639 96.7708C59.2391 96.8415 59.385 96.9167 59.4558 96.8415L59.5266 96.7708C59.8184 96.1119 60.0395 95.3823 60.1854 94.7234C60.4065 93.9938 60.4065 93.1138 60.2606 92.3842L60.1854 92.0172C60.1854 91.9464 60.2606 91.8713 60.3313 91.8713H60.4065L64.7223 92.8971C66.4778 93.4101 68.5252 93.6268 70.3559 93.6268C72.1865 93.6268 73.9376 93.4057 75.6931 92.8971L80.0089 91.8713H80.0797C80.1549 91.8713 80.2256 91.9464 80.2256 92.0172L80.1504 92.3842C80.0045 93.1138 80.0045 93.9938 80.2256 94.7234C80.3715 95.3823 80.5926 96.1119 80.8845 96.7708L80.9552 96.8415C81.0304 96.9167 81.1763 96.8415 81.2471 96.7708L84.0285 91.942C84.3778 91.3053 84.7714 90.6331 85.1738 89.9433C85.7884 88.8953 86.4252 87.8075 86.9558 86.7507C89.0032 82.5808 92.1471 74.6832 91.7094 74.4621C88.1984 72.9277 84.9084 71.097 81.6893 68.9745C81.6451 68.9303 81.6274 68.9126 81.6229 68.8949C81.6185 68.8772 81.6185 68.8595 81.6185 68.8286C81.6185 68.7578 81.6937 68.6826 81.7645 68.6826L94.1237 66.9271C94.6367 66.8564 95.1496 66.4894 95.2204 65.9013L96.5381 59.8299C96.9051 56.8319 94.3448 54.1964 90.8338 53.9046L90.8206 53.9001ZM70.3426 86.083H58.934L60.4684 83.0097C60.7603 82.5719 61.2732 82.3508 61.7862 82.3508V83.5227H68.733C68.6623 83.2352 68.2245 81.3205 68.2245 81.2542C64.7135 80.3787 61.0565 78.1102 60.7647 75.404C60.0749 69.5538 64.824 69.2089 70.2011 69.1867C75.5782 69.2089 80.3229 69.5538 79.6375 75.404C79.3457 78.1102 75.6887 80.3787 72.1777 81.2542C72.1777 81.3161 71.7399 83.2352 71.6692 83.5227H78.616V82.3508C79.129 82.3508 79.6419 82.5719 79.9338 83.0097L81.4682 86.083H70.3514H70.3426Z" fill="white"/>
</svg>
