<svg width="136" height="136" viewBox="0 0 136 136" fill="none" xmlns="http://www.w3.org/2000/svg">
<path d="M67.9971 0.547424C30.8396 0.547424 0.717285 30.6697 0.717285 67.8273C0.717285 104.985 30.8396 135.107 67.9971 135.107C105.155 135.107 135.277 104.985 135.277 67.8273C135.277 30.6697 105.155 0.547424 67.9971 0.547424ZM58.2821 24.6957H77.7343V30.1656H58.2821V24.6957ZM37.9412 70.3566C37.9412 66.6466 39.626 63.1754 42.6859 60.5841L62.8986 43.5508L43.42 27.2471C42.058 26.0488 41.8414 24.0235 42.907 22.6129C43.3802 21.9717 44.0523 21.5605 44.95 21.3792C46.0466 21.1669 46.8514 21.6534 47.3688 22.0381L47.4263 22.0823L67.9573 39.2969L87.8163 22.5599C88.6034 21.9717 89.4966 21.7374 90.3324 21.901C91.2831 22.0911 91.9729 22.5599 92.4416 23.3249C93.441 24.846 93.1801 26.7519 91.8403 27.7866L47.3201 65.2227C45.6265 66.6466 44.7687 68.3756 44.7687 70.3566C44.7687 72.3377 45.6752 74.1109 47.3201 75.4993L65.8613 91.1221L60.2543 94.978L42.6859 80.1335C39.6348 77.644 37.9412 74.1683 37.9412 70.3566ZM47.4351 73.5625V67.7786H89.0014V73.5625H47.4351ZM77.7343 78.1083V83.5782H58.2821V78.1083H77.7343ZM77.7343 63.4451H58.2821V57.9752H77.7343V63.4451ZM77.7343 115.92H58.2821V110.45H77.7343V115.92ZM93.2243 80.0274L73.0205 97.0607L91.7651 112.847C93.1226 114.041 93.3349 116.066 92.278 117.477C91.8005 118.122 91.1283 118.529 90.2307 118.711L90.1024 118.737H89.6558C88.8466 118.737 88.1479 118.476 87.6217 117.981L67.9087 101.368L48.147 118.025C47.7712 118.472 47.1167 118.945 46.051 118.945H45.7061L45.5823 118.918C44.6935 118.746 44.0214 118.344 43.5261 117.689C42.4648 116.265 42.6904 114.24 44.0302 113.073L88.6962 75.3932C90.3898 73.9694 91.2477 72.2404 91.2477 70.2549C91.2477 68.2695 90.3412 66.5007 88.6962 65.1122L70.3938 49.8034L75.0678 44.9614L93.2287 60.4824C96.2799 62.972 97.9735 66.4476 97.9735 70.2549C97.9735 74.0622 96.2887 77.4406 93.2243 80.0274Z" fill="#444444"/>
</svg>
