<svg width="135" height="136" viewBox="0 0 135 136" fill="none" xmlns="http://www.w3.org/2000/svg">
<path d="M67.6381 0.834534C30.4806 0.834534 0.358398 30.9567 0.358398 68.1143C0.358398 105.272 30.4806 135.394 67.6381 135.394C104.796 135.394 134.918 105.272 134.918 68.1143C134.918 30.9567 104.796 0.834534 67.6381 0.834534ZM57.9231 24.9827H77.3752V30.4526H57.9231V24.9827ZM37.5822 70.6436C37.5822 66.9336 39.267 63.4624 42.327 60.8711L62.5396 43.8378L43.061 27.5342C41.6991 26.3358 41.4824 24.3106 42.5481 22.9C43.0212 22.2588 43.6933 21.8476 44.591 21.6663C45.6876 21.454 46.4924 21.9404 47.0098 22.3251L47.0673 22.3694L67.5983 39.5839L87.4572 22.8469C88.2443 22.2588 89.1376 22.0244 89.9733 22.1881C90.924 22.3782 91.6139 22.8469 92.0826 23.6119C93.0819 25.1331 92.821 27.0389 91.4812 28.0736L46.9612 65.5097C45.2676 66.9336 44.4097 68.6626 44.4097 70.6436C44.4097 72.6246 45.3162 74.3978 46.9612 75.7863L65.5023 91.409L59.8953 95.2649L42.327 80.4205C39.2758 77.9309 37.5822 74.4553 37.5822 70.6436ZM47.0761 73.8495V68.0656H88.6423V73.8495H47.0761ZM77.3752 78.3953V83.8652H57.9231V78.3953H77.3752ZM77.3752 63.7321H57.9231V58.2622H77.3752V63.7321ZM77.3752 116.207H57.9231V110.737H77.3752V116.207ZM92.8652 80.3144L72.6615 97.3477L91.406 113.134C92.7635 114.328 92.9758 116.353 91.919 117.764C91.4414 118.409 90.7693 118.816 89.8716 118.997L89.7434 119.024H89.2968C88.4875 119.024 87.7889 118.763 87.2627 118.268L67.5497 101.655L47.7881 118.312C47.4122 118.759 46.7578 119.232 45.6921 119.232H45.3472L45.2233 119.205C44.3345 119.033 43.6624 118.63 43.1671 117.976C42.1059 116.552 42.3314 114.527 43.6712 113.359L88.3372 75.6802C90.0308 74.2563 90.8886 72.5273 90.8886 70.5419C90.8886 68.5564 89.9821 66.7877 88.3372 65.3992L70.0348 50.0905L74.7088 45.2484L92.8697 60.7694C95.9208 63.259 97.6144 66.7346 97.6144 70.5419C97.6144 74.3492 95.9296 77.7275 92.8652 80.3144Z" fill="#3E83D9"/>
</svg>
