<svg width="135" height="135" viewBox="0 0 135 135" fill="none" xmlns="http://www.w3.org/2000/svg">
<path d="M67.4233 0.122192C30.2658 0.122192 0.143555 30.2444 0.143555 67.4019C0.143555 104.559 30.2658 134.682 67.4233 134.682C104.581 134.682 134.703 104.559 134.703 67.4019C134.703 30.2444 104.581 0.122192 67.4233 0.122192ZM57.7083 24.2704H77.1604V29.7403H57.7083V24.2704ZM37.3674 69.9312C37.3674 66.2212 39.0521 62.75 42.1121 60.1588L62.3248 43.1255L42.8462 26.8218C41.4842 25.6235 41.2675 23.5982 42.3332 22.1876C42.8064 21.5465 43.4785 21.1352 44.3761 20.9539C45.4728 20.7417 46.2776 21.2281 46.7949 21.6128L46.8524 21.657L67.3835 38.8716L87.2424 22.1346C88.0295 21.5465 88.9227 21.3121 89.7585 21.4757C90.7092 21.6658 91.399 22.1346 91.8677 22.8996C92.8671 24.4207 92.6062 26.3266 91.2663 27.3613L46.7463 64.7974C45.0527 66.2212 44.1949 67.9502 44.1949 69.9312C44.1949 71.9123 45.1014 73.6855 46.7463 75.074L65.2875 90.6966L59.6805 94.5526L42.1121 79.7081C39.061 77.2186 37.3674 73.743 37.3674 69.9312ZM46.8613 73.1371V67.3533H88.4274V73.1371H46.8613ZM77.1604 77.6829V83.1528H57.7083V77.6829H77.1604ZM77.1604 63.0198H57.7083V57.5498H77.1604V63.0198ZM77.1604 115.495H57.7083V110.025H77.1604V115.495ZM92.6504 79.602L72.4466 96.6353L91.1912 112.422C92.5487 113.616 92.761 115.641 91.7041 117.051C91.2265 117.697 90.5544 118.104 89.6568 118.285L89.5285 118.312H89.0819C88.2727 118.312 87.574 118.051 87.0478 117.555L67.3348 100.942L47.5732 117.6C47.1973 118.046 46.5429 118.519 45.4772 118.519H45.1323L45.0085 118.493C44.1197 118.32 43.4475 117.918 42.9523 117.264C41.891 115.84 42.1165 113.815 43.4564 112.647L88.1223 74.9678C89.8159 73.544 90.6738 71.815 90.6738 69.8295C90.6738 67.8441 89.7673 66.0753 88.1223 64.6868L69.82 49.3781L74.4939 44.5361L92.6548 60.0571C95.7059 62.5466 97.3996 66.0223 97.3996 69.8295C97.3996 73.6368 95.7148 77.0152 92.6504 79.602Z" fill="white"/>
</svg>
