<svg width="135" height="135" viewBox="0 0 135 135" fill="none" xmlns="http://www.w3.org/2000/svg">
<path d="M67.3393 0.382446C30.1818 0.382446 0.0595703 30.5047 0.0595703 67.6622C0.0595703 104.82 30.1818 134.942 67.3393 134.942C104.497 134.942 134.619 104.82 134.619 67.6622C134.619 30.5047 104.501 0.382446 67.3393 0.382446ZM102.498 21.7448C104.231 21.7448 105.806 22.302 107.185 23.3721C113.96 28.6828 117.732 44.6416 111.957 61.1575C109.295 68.8119 107.34 73.6539 106.053 76.8465C104.921 79.6367 104.254 81.3348 103.988 82.6304C103.856 83.2539 103.767 83.8111 103.723 84.3063C102.547 85.0404 101.3 85.7346 99.9732 86.3802C99.0844 86.8047 98.2397 87.2292 97.4394 87.6095C97.1696 85.9115 97.2183 83.8818 97.7268 81.3171C98.1248 79.4201 98.8809 77.5231 100.146 74.3746C101.415 71.2262 103.321 66.4727 105.943 58.9775C110.935 44.6504 107.561 31.8843 103.298 28.559C103.051 28.3821 102.808 28.2893 102.498 28.2893C101.034 28.2893 99.0136 29.7397 97.2581 31.2564C97.1255 30.9866 97.0149 30.7213 96.8601 30.4074C96.0598 28.6872 95.1489 27.0157 94.1716 25.3841C96.6125 23.4428 99.5221 21.7492 102.498 21.7492V21.7448ZM64.9736 8.28444C65.4821 8.196 66.0392 8.17389 66.5964 8.17389C74.8566 8.17389 87.4458 16.3633 94.5253 31.5836C97.9435 38.924 99.9201 43.7439 101.229 46.9587C102.361 49.7268 103.051 51.4027 103.763 52.5126C104.094 53.0256 104.404 53.4722 104.718 53.8525C104.386 55.2365 103.984 56.6427 103.475 58.071C103.166 59.0084 102.852 59.8796 102.542 60.7241C101.211 59.7425 99.814 58.27 98.4122 56.0811C97.3687 54.476 96.6169 52.5789 95.3302 49.4526C94.0434 46.3042 92.111 41.5772 88.7547 34.365C83.0947 22.2047 72.8357 14.683 66.5964 14.683C66.3045 14.683 66.0393 14.7051 65.796 14.7272C64.863 14.8643 63.7973 16.1555 63.4215 21.0682C63.134 20.9577 62.8201 20.8427 62.5105 20.7587C60.7771 20.1131 58.9819 19.5957 57.1821 19.1491C57.7614 14.3292 59.5346 9.01848 64.978 8.28002L64.9736 8.28444ZM92.7566 73.1409C91.3017 74.5957 89.3473 75.4492 87.2911 75.3961C83.0283 75.3961 79.566 71.9868 79.566 67.7196V67.671C79.566 63.4083 83.0239 59.9459 87.2911 59.9459C89.3473 59.9459 91.3017 60.7507 92.7566 62.2011C95.7635 65.2124 95.7635 70.0765 92.7566 73.1365V73.1409ZM24.6279 28.1257C28.2273 23.35 36.2177 20.3828 45.5215 20.3828C50.872 20.3828 56.4437 21.3866 61.6615 23.2836C69.1435 26.0075 73.897 28.0151 77.0498 29.3328C79.7605 30.4737 81.401 31.1635 82.6878 31.4288C83.2892 31.5615 83.8464 31.6544 84.3549 31.6986C85.111 32.95 85.7743 34.2191 86.3978 35.5368C86.8179 36.43 87.1982 37.2791 87.5741 38.106C86.9285 38.2209 86.2431 38.2828 85.4648 38.2828C84.2222 38.2828 82.8912 38.1281 81.3789 37.8141C79.5129 37.4338 77.6513 36.6556 74.5869 35.3599C71.5003 34.0643 66.8396 32.101 59.4859 29.4257C54.98 27.7763 50.1424 26.9052 45.4994 26.9052C37.2613 26.9052 31.6234 29.5141 29.6689 32.1054C29.0896 32.8394 29.2266 34.5596 32.3972 38.3315C32.1097 38.4641 31.8179 38.6012 31.5305 38.756C29.8413 39.5608 28.2008 40.4982 26.6664 41.4799C23.7169 37.6417 21.2716 32.5962 24.6234 28.1345L24.6279 28.1257ZM63.0898 64.642V60.9806H77.2312V64.642H72.0133V75.1264H68.3033V64.642H63.0854H63.0898ZM9.83646 71.3102C8.72655 62.6742 17.1415 48.6788 32.6404 41.1615C39.8349 37.677 44.584 35.6695 47.7192 34.3296C50.4475 33.1711 52.0925 32.4768 53.1803 31.7428C53.733 31.3846 54.1752 31.0486 54.5776 30.7169C55.9307 31.0486 57.2838 31.4509 58.6193 31.9462C59.5523 32.2778 60.4411 32.6139 61.2857 32.9279C60.3084 34.334 58.8448 35.7623 56.6869 37.2127C55.0861 38.2607 53.2466 39.0655 50.1822 40.3611C47.0957 41.6568 42.435 43.6422 35.3953 47.056C21.9172 53.596 15.4788 65.0444 16.1908 70.4657C16.3677 71.9603 17.6102 72.4732 22.4301 72.7651C22.3196 73.0967 22.209 73.4372 22.072 73.791C21.4529 75.5553 20.9444 77.3639 20.5199 79.168C15.7486 78.7435 10.6413 77.4302 9.84088 71.3147L9.83646 71.3102ZM59.9989 60.9806V64.6906H52.6275V75.1264H48.9661V60.9806H59.9989ZM34.1969 114.269C32.4635 114.269 30.8008 113.668 29.293 112.483C22.5186 107.194 18.7688 91.2355 24.5217 74.7019C27.2058 67.0475 29.1603 62.2055 30.4471 58.9907C31.5791 56.2226 32.2468 54.5246 32.5121 53.2334C32.6448 52.6276 32.7332 52.0704 32.7775 51.5796C33.9537 50.8455 35.1962 50.1292 36.5272 49.4836C37.416 49.037 38.2607 48.6346 39.0611 48.2543C39.3264 49.9523 39.2821 51.982 38.7736 54.5467C38.3933 56.4437 37.6151 58.3407 36.3548 61.467C35.0857 64.6154 33.1798 69.369 30.5576 76.8642C25.5608 91.1957 28.9569 103.957 33.202 107.283C33.7813 107.729 34.0908 107.729 34.2234 107.729C35.3997 107.729 37.31 106.146 39.176 104.448C39.3308 104.78 39.4635 105.072 39.6182 105.43C40.4186 107.128 41.303 108.777 42.2625 110.365C39.7288 112.549 37.1994 114.269 34.2014 114.269H34.1969ZM71.5224 127.571C71.0139 127.637 70.4568 127.681 69.8996 127.681C61.6394 127.681 49.0546 119.492 41.9707 104.293C38.5746 96.9486 36.598 92.111 35.2891 88.9184C34.1571 86.1282 33.4673 84.4522 32.7554 83.3379C32.4237 82.8029 32.1098 82.3783 31.8224 81.9981C32.1319 80.614 32.5077 79.2078 33.0207 77.7574C33.3523 76.8421 33.6663 75.971 33.9537 75.1485C35.2847 76.108 36.682 77.5584 38.1059 79.7473C39.1495 81.3746 39.9012 83.2716 41.1924 86.3979C42.4792 89.5463 44.4116 94.2999 47.7634 101.486C53.4279 113.624 63.6602 121.145 69.9261 121.145C70.1914 121.145 70.4567 121.123 70.7 121.101C71.6109 120.964 72.6987 119.673 73.0745 114.76C73.3841 114.871 73.6759 114.986 73.9855 115.092C75.7189 115.737 77.5141 116.255 79.3139 116.701C78.7346 121.521 76.9835 126.832 71.518 127.571H71.5224ZM111.89 107.729C108.291 112.505 99.0578 115.472 90.9966 115.472C85.6461 115.472 80.0524 114.468 74.8522 112.571C67.3481 109.825 62.599 107.84 59.4682 106.522C56.7399 105.359 55.095 104.669 53.8082 104.4C53.2289 104.289 52.6983 104.201 52.1853 104.152C51.4513 102.901 50.7394 101.631 50.1203 100.314C49.7002 99.4426 49.3199 98.5936 48.9441 97.7932C49.6118 97.6782 50.3414 97.5942 51.1639 97.5942C52.3843 97.5942 53.6755 97.7269 55.1171 98.0364C56.9831 98.4388 58.8447 99.2215 61.9091 100.517C64.9957 101.791 69.6564 103.754 77.0101 106.429C81.5381 108.079 86.3801 108.95 90.9966 108.95C99.2347 108.95 104.873 106.341 106.827 103.75C107.406 102.993 107.274 101.295 104.099 97.5235C104.386 97.3908 104.652 97.2537 104.966 97.099C106.677 96.2721 108.295 95.3567 109.852 94.3751C112.784 98.2133 115.247 103.254 111.895 107.72L111.89 107.729ZM103.785 94.72C96.5904 98.2044 91.8633 100.212 88.7282 101.552C85.9999 102.71 84.3549 103.405 83.2671 104.139C82.7321 104.497 82.2899 104.833 81.8875 105.165C80.5078 104.833 79.1768 104.431 77.8458 103.935C76.9128 103.604 76.0284 103.263 75.1838 102.954C76.161 101.547 77.6026 100.119 79.7782 98.6688C81.3745 97.5986 83.2229 96.816 86.2828 95.4982C89.3738 94.207 94.0345 92.2172 101.07 88.8034C114.548 82.2634 120.986 70.7929 120.301 65.3716C120.168 64.412 118.899 63.3198 114.106 62.9395C114.216 62.6477 114.305 62.3558 114.415 62.0684C115.056 60.2377 115.569 58.4071 115.989 56.5543C120.739 57.1556 125.917 58.9421 126.646 64.5226C127.756 73.1586 119.363 87.154 103.776 94.7155L103.785 94.72Z" fill="white"/>
<path d="M82.7275 67.724C82.7275 69.3292 83.581 70.8326 84.9827 71.6374C86.3889 72.4422 88.1444 72.4422 89.5992 71.6374C91.8057 70.3816 92.5088 67.5737 91.253 65.3671C90.3996 63.961 88.8961 63.1119 87.291 63.1119C84.7837 63.1119 82.7275 65.1681 82.7275 67.7284V67.724Z" fill="white"/>
</svg>
