<svg width="135" height="135" viewBox="0 0 135 135" fill="none" xmlns="http://www.w3.org/2000/svg">
<path d="M67.5541 0.0942993C30.3966 0.0942993 0.274414 30.2165 0.274414 67.374C0.274414 104.532 30.3966 134.654 67.5541 134.654C104.712 134.654 134.834 104.532 134.834 67.374C134.834 30.2165 104.716 0.0942993 67.5541 0.0942993ZM102.713 21.4567C104.446 21.4567 106.021 22.0138 107.4 23.0839C114.175 28.3947 117.947 44.3534 112.171 60.8694C109.509 68.5237 107.555 73.3657 106.268 76.5584C105.136 79.3486 104.468 81.0466 104.203 82.3423C104.07 82.9658 103.982 83.5229 103.938 84.0182C102.762 84.7522 101.515 85.4465 100.188 86.0921C99.2992 86.5166 98.4546 86.9411 97.6542 87.3214C97.3845 85.6233 97.4331 83.5937 97.9417 81.0289C98.3396 79.1319 99.0958 77.2349 100.36 74.0865C101.63 70.9381 103.535 66.1845 106.158 58.6893C111.15 44.3623 107.776 31.5962 103.513 28.2709C103.266 28.094 103.022 28.0011 102.713 28.0011C101.249 28.0011 99.2285 29.4515 97.473 30.9682C97.3403 30.6985 97.2297 30.4332 97.075 30.1192C96.2746 28.3991 95.3637 26.7276 94.3865 25.0959C96.8274 23.1547 99.737 21.4611 102.713 21.4611V21.4567ZM65.1884 7.99629C65.6969 7.90786 66.2541 7.88575 66.8112 7.88575C75.0714 7.88575 87.6607 16.0752 94.7402 31.2955C98.1583 38.6359 100.135 43.4558 101.444 46.6705C102.576 49.4387 103.266 51.1146 103.978 52.2245C104.309 52.7374 104.619 53.184 104.933 53.5643C104.601 54.9484 104.199 56.3546 103.69 57.7828C103.381 58.7203 103.067 59.5914 102.757 60.436C101.426 59.4543 100.029 57.9818 98.6271 55.793C97.5835 54.1878 96.8318 52.2908 95.545 49.1645C94.2582 46.0161 92.3258 41.289 88.9696 34.0769C83.3095 21.9165 73.0506 14.3948 66.8112 14.3948C66.5194 14.3948 66.2541 14.4169 66.0109 14.4391C65.0779 14.5761 64.0122 15.8673 63.6363 20.7801C63.3489 20.6696 63.0349 20.5546 62.7254 20.4706C60.992 19.825 59.1967 19.3076 57.397 18.861C57.9762 14.0411 59.7494 8.73034 65.1928 7.99187L65.1884 7.99629ZM92.9714 72.8528C91.5166 74.3076 89.5621 75.161 87.5059 75.108C83.2432 75.108 79.7808 71.6987 79.7808 67.4315V67.3829C79.7808 63.1201 83.2387 59.6577 87.5059 59.6577C89.5621 59.6577 91.5166 60.4625 92.9714 61.9129C95.9783 64.9243 95.9783 69.7884 92.9714 72.8484V72.8528ZM24.8427 27.8375C28.4422 23.0618 36.4326 20.0947 45.7363 20.0947C51.0869 20.0947 56.6585 21.0985 61.8764 22.9955C69.3583 25.7194 74.1119 27.727 77.2647 29.0447C79.9753 30.1856 81.6159 30.8754 82.9027 31.1407C83.504 31.2734 84.0612 31.3662 84.5697 31.4104C85.3259 32.6618 85.9892 33.9309 86.6127 35.2487C87.0328 36.1419 87.4131 36.9909 87.7889 37.8178C87.1433 37.9328 86.4579 37.9947 85.6796 37.9947C84.4371 37.9947 83.1061 37.8399 81.5938 37.526C79.7277 37.1457 77.8661 36.3674 74.8017 35.0718C71.7152 33.7762 67.0545 31.8128 59.7008 29.1376C55.1948 27.4882 50.3572 26.6171 45.7142 26.6171C37.4761 26.6171 31.8382 29.226 29.8837 31.8172C29.3044 32.5513 29.4415 34.2714 32.612 38.0433C32.3246 38.176 32.0328 38.3131 31.7453 38.4678C30.0562 39.2726 28.4156 40.2101 26.8812 41.1917C23.9318 37.3535 21.4865 32.3081 24.8383 27.8464L24.8427 27.8375ZM63.3047 64.3538V60.6925H77.446V64.3538H72.2281V74.8382H68.5182V64.3538H63.3002H63.3047ZM10.0513 71.0221C8.9414 62.3861 17.3564 48.3907 32.8552 40.8734C40.0497 37.3889 44.7989 35.3813 47.934 34.0415C50.6624 32.8829 52.3073 32.1887 53.3951 31.4547C53.9478 31.0965 54.3901 30.7604 54.7924 30.4288C56.1456 30.7604 57.4987 31.1628 58.8341 31.6581C59.7671 31.9897 60.656 32.3258 61.5005 32.6397C60.5233 34.0459 59.0596 35.4742 56.9017 36.9246C55.301 37.9726 53.4614 38.7774 50.397 40.073C47.3105 41.3686 42.6498 43.3541 35.6101 46.7678C22.132 53.3078 15.6937 64.7562 16.4056 70.1775C16.5825 71.6721 17.8251 72.1851 22.645 72.4769C22.5344 72.8086 22.4239 73.1491 22.2868 73.5028C21.6677 75.2672 21.1592 77.0757 20.7347 78.8799C15.9634 78.4554 10.8561 77.1421 10.0557 71.0265L10.0513 71.0221ZM60.2137 60.6925V64.4025H52.8424V74.8382H49.181V60.6925H60.2137ZM34.4118 113.981C32.6784 113.981 31.0157 113.38 29.5078 112.195C22.7334 106.906 18.9836 90.9473 24.7366 74.4137C27.4207 66.7594 29.3751 61.9174 30.6619 58.7026C31.7939 55.9345 32.4617 54.2365 32.727 52.9452C32.8596 52.3394 32.9481 51.7823 32.9923 51.2914C34.1685 50.5574 35.4111 49.8411 36.7421 49.1954C37.6309 48.7488 38.4755 48.3464 39.2759 47.9662C39.5412 49.6642 39.497 51.6938 38.9885 54.2586C38.6082 56.1556 37.8299 58.0526 36.5697 61.1789C35.3006 64.3273 33.3947 69.0809 30.7725 76.5761C25.7757 90.9076 29.1718 103.669 33.4168 106.995C33.9961 107.441 34.3056 107.441 34.4383 107.441C35.6145 107.441 37.5248 105.858 39.3909 104.16C39.5456 104.492 39.6783 104.784 39.8331 105.142C40.6334 106.84 41.5178 108.489 42.4774 110.077C39.9436 112.261 37.4143 113.981 34.4162 113.981H34.4118ZM71.7373 127.282C71.2288 127.349 70.6716 127.393 70.1145 127.393C61.8543 127.393 49.2695 119.204 42.1855 104.005C38.7895 96.6605 36.8129 91.8229 35.504 88.6303C34.372 85.84 33.6822 84.1641 32.9702 83.0498C32.6386 82.5147 32.3246 82.0902 32.0372 81.7099C32.3467 80.3259 32.7226 78.9197 33.2355 77.4693C33.5672 76.5539 33.8811 75.6828 34.1685 74.8604C35.4995 75.8199 36.8969 77.2703 38.3207 79.4592C39.3643 81.0864 40.116 82.9834 41.4072 86.1098C42.694 89.2582 44.6264 94.0117 47.9782 101.197C53.6427 113.336 63.8751 120.857 70.141 120.857C70.4063 120.857 70.6716 120.835 70.9148 120.813C71.8257 120.676 72.9135 119.385 73.2894 114.472C73.5989 114.583 73.8908 114.698 74.2003 114.804C75.9337 115.449 77.729 115.967 79.5287 116.413C78.9494 121.233 77.1984 126.544 71.7328 127.282H71.7373ZM112.105 107.441C108.506 112.217 99.2727 115.184 91.2115 115.184C85.8609 115.184 80.2672 114.18 75.067 112.283C67.563 109.537 62.8138 107.552 59.6831 106.234C56.9547 105.071 55.3098 104.381 54.023 104.111C53.4438 104.001 52.9131 103.912 52.4002 103.864C51.6661 102.612 50.9542 101.343 50.3352 100.026C49.9151 99.1545 49.5348 98.3054 49.1589 97.5051C49.8266 97.3901 50.5563 97.3061 51.3787 97.3061C52.5992 97.3061 53.8904 97.4387 55.3319 97.7483C57.198 98.1507 59.0596 98.9334 62.124 100.229C65.2105 101.503 69.8712 103.466 77.2249 106.141C81.753 107.79 86.595 108.662 91.2115 108.662C99.4496 108.662 105.088 106.053 107.042 103.461C107.621 102.705 107.489 101.007 104.314 97.2353C104.601 97.1027 104.866 96.9656 105.18 96.8108C106.892 95.9839 108.51 95.0686 110.067 94.0869C112.998 97.9252 115.461 102.966 112.11 107.432L112.105 107.441ZM104 94.4318C96.8053 97.9163 92.0782 99.9239 88.943 101.264C86.2147 102.422 84.5698 103.117 83.482 103.851C82.9469 104.209 82.5047 104.545 82.1023 104.876C80.7227 104.545 79.3917 104.142 78.0607 103.647C77.1276 103.315 76.2432 102.975 75.3987 102.665C76.3759 101.259 77.8175 99.831 79.993 98.3806C81.5894 97.3105 83.4377 96.5278 86.4977 95.2101C89.5886 93.9189 94.2494 91.929 101.285 88.5153C114.763 81.9753 121.201 70.5047 120.516 65.0835C120.383 64.1239 119.114 63.0317 114.321 62.6514C114.431 62.3595 114.519 62.0677 114.63 61.7803C115.271 59.9496 115.784 58.1189 116.204 56.2661C120.953 56.8675 126.132 58.654 126.861 64.2344C127.971 72.8705 119.578 86.8659 103.991 94.4274L104 94.4318Z" fill="#3E83D9"/>
<path d="M82.9424 67.4363C82.9424 69.0415 83.7958 70.545 85.1976 71.3497C86.6037 72.1545 88.3592 72.1545 89.814 71.3497C92.0206 70.0939 92.7237 67.286 91.4678 65.0794C90.6144 63.6733 89.111 62.8243 87.5058 62.8243C84.9986 62.8243 82.9424 64.8805 82.9424 67.4408V67.4363Z" fill="#3E83D9"/>
</svg>
