<svg width="136" height="136" viewBox="0 0 136 136" fill="none" xmlns="http://www.w3.org/2000/svg">
<path d="M67.9141 0.807678C30.7566 0.807678 0.634277 30.9299 0.634277 68.0875C0.634277 105.245 30.7566 135.367 67.9141 135.367C105.072 135.367 135.194 105.245 135.194 68.0875C135.194 30.9299 105.076 0.807678 67.9141 0.807678ZM103.073 22.1701C104.806 22.1701 106.381 22.7272 107.76 23.7974C114.535 29.1081 118.307 45.0669 112.532 61.5829C109.87 69.2372 107.915 74.0793 106.628 77.2719C105.496 80.0621 104.829 81.7602 104.563 83.0558C104.431 83.6793 104.342 84.2365 104.298 84.7317C103.122 85.4658 101.875 86.16 100.548 86.8056C99.6593 87.2301 98.8147 87.6546 98.0143 88.0349C97.7445 86.3369 97.7932 84.3072 98.3017 81.7425C98.6997 79.8455 99.4558 77.9485 100.721 74.8C101.99 71.6516 103.896 66.898 106.518 59.4028C111.51 45.0757 108.136 32.3096 103.873 28.9843C103.626 28.8074 103.383 28.7146 103.073 28.7146C101.609 28.7146 99.5885 30.165 97.833 31.6817C97.7004 31.4119 97.5898 31.1466 97.435 30.8327C96.6347 29.1125 95.7238 27.441 94.7465 25.8093C97.1874 23.8681 100.097 22.1745 103.073 22.1745V22.1701ZM65.5484 8.70969C66.0569 8.62125 66.6141 8.59914 67.1712 8.59914C75.4314 8.59914 88.0207 16.7886 95.1002 32.0089C98.5184 39.3493 100.495 44.1692 101.804 47.384C102.936 50.1521 103.626 51.828 104.338 52.938C104.669 53.4509 104.979 53.8975 105.293 54.2778C104.961 55.6619 104.559 57.0681 104.05 58.4963C103.741 59.4338 103.427 60.3049 103.117 61.1495C101.786 60.1678 100.389 58.6953 98.9871 56.5065C97.9436 54.9013 97.1918 53.0043 95.9051 49.878C94.6183 46.7295 92.6859 42.0025 89.3296 34.7903C83.6695 22.63 73.4106 15.1082 67.1712 15.1082C66.8794 15.1082 66.6141 15.1303 66.3709 15.1525C65.4379 15.2895 64.3722 16.5807 63.9963 21.4935C63.7089 21.383 63.3949 21.268 63.0854 21.184C61.352 20.5384 59.5567 20.021 57.757 19.5744C58.3362 14.7545 60.1094 9.44373 65.5528 8.70527L65.5484 8.70969ZM93.3315 73.5663C91.8766 75.0211 89.9221 75.8746 87.8659 75.8215C83.6032 75.8215 80.1408 72.4122 80.1408 68.145V68.0964C80.1408 63.8336 83.5988 60.3712 87.8659 60.3712C89.9221 60.3712 91.8766 61.176 93.3315 62.6264C96.3384 65.6378 96.3384 70.5019 93.3315 73.5619V73.5663ZM25.2026 28.5509C28.8021 23.7752 36.7925 20.8081 46.0963 20.8081C51.4468 20.8081 57.0185 21.8119 62.2364 23.7089C69.7183 26.4328 74.4719 28.4404 77.6247 29.7581C80.3354 30.899 81.9759 31.5888 83.2627 31.8541C83.8641 31.9868 84.4212 32.0797 84.9298 32.1239C85.6859 33.3753 86.3492 34.6444 86.9727 35.9621C87.3928 36.8554 87.7731 37.7044 88.1489 38.5313C87.5033 38.6462 86.8179 38.7081 86.0397 38.7081C84.7971 38.7081 83.4661 38.5534 81.9538 38.2394C80.0877 37.8591 78.2261 37.0809 75.1617 35.7852C72.0752 34.4896 67.4145 32.5263 60.0608 29.851C55.5548 28.2016 50.7172 27.3305 46.0742 27.3305C37.8361 27.3305 32.1981 29.9394 30.2436 32.5307C29.6644 33.2647 29.8014 34.9849 32.9719 38.7568C32.6845 38.8894 32.3927 39.0265 32.1053 39.1813C30.4161 39.9861 28.7755 40.9235 27.2411 41.9052C24.2917 38.067 21.8464 33.0215 25.1982 28.5598L25.2026 28.5509ZM63.6647 65.0673V61.406H77.806V65.0673H72.5881V75.5518H68.8781V65.0673H63.6602H63.6647ZM10.4112 71.7356C9.30128 63.0996 17.7163 49.1041 33.2152 41.5868C40.4097 38.1023 45.1588 36.0948 48.294 34.7549C51.0223 33.5964 52.6673 32.9021 53.7551 32.1681C54.3078 31.8099 54.75 31.4738 55.1524 31.1422C56.5055 31.4738 57.8587 31.8762 59.1941 32.3715C60.1271 32.7031 61.0159 33.0392 61.8605 33.3532C60.8833 34.7593 59.4196 36.1876 57.2617 37.638C55.661 38.686 53.8214 39.4908 50.757 40.7865C47.6705 42.0821 43.0098 44.0675 35.97 47.4813C22.492 54.0213 16.0536 65.4697 16.7655 70.891C16.9424 72.3857 18.185 72.8986 23.0049 73.1905C22.8943 73.5221 22.7838 73.8626 22.6467 74.2163C22.0276 75.9807 21.5191 77.7893 21.0946 79.5934C16.3233 79.1689 11.216 77.8556 10.4156 71.7401L10.4112 71.7356ZM60.5737 61.406V65.116H53.2023V75.5518H49.5409V61.406H60.5737ZM34.7717 114.695C33.0383 114.695 31.3756 114.093 29.8677 112.908C23.0933 107.62 19.3435 91.6609 25.0965 75.1273C27.7806 67.4729 29.7351 62.6308 31.0219 59.4161C32.1539 56.648 32.8216 54.9499 33.0869 53.6587C33.2196 53.0529 33.308 52.4958 33.3522 52.0049C34.5285 51.2709 35.771 50.5545 37.102 49.9089C37.9908 49.4623 38.8355 49.0599 39.6358 48.6796C39.9012 50.3777 39.8569 52.4073 39.3484 54.972C38.9681 56.8691 38.1899 58.7661 36.9296 61.8924C35.6605 65.0408 33.7546 69.7944 31.1324 77.2896C26.1356 91.6211 29.5317 104.383 33.7768 107.708C34.356 108.155 34.6656 108.155 34.7982 108.155C35.9744 108.155 37.8848 106.572 39.7508 104.874C39.9056 105.205 40.0382 105.497 40.193 105.855C40.9934 107.553 41.8778 109.203 42.8373 110.79C40.3036 112.975 37.7742 114.695 34.7761 114.695H34.7717ZM72.0973 127.996C71.5888 128.062 71.0316 128.107 70.4745 128.107C62.2143 128.107 49.6294 119.917 42.5455 104.719C39.1494 97.3741 37.1728 92.5364 35.8639 89.3438C34.7319 86.5536 34.0421 84.8776 33.3301 83.7633C32.9985 83.2283 32.6845 82.8038 32.3971 82.4235C32.7067 81.0394 33.0825 79.6332 33.5955 78.1828C33.9271 77.2675 34.2411 76.3964 34.5285 75.5739C35.8595 76.5334 37.2568 77.9838 38.6807 80.1727C39.7243 81.8 40.476 83.697 41.7672 86.8233C43.054 89.9717 44.9864 94.7253 48.3382 101.911C54.0027 114.049 64.2351 121.571 70.501 121.571C70.7663 121.571 71.0316 121.549 71.2748 121.527C72.1857 121.39 73.2735 120.098 73.6494 115.186C73.9589 115.296 74.2508 115.411 74.5603 115.517C76.2937 116.163 78.089 116.68 79.8887 117.127C79.3095 121.947 77.5584 127.258 72.0928 127.996H72.0973ZM112.465 108.155C108.866 112.93 99.6327 115.898 91.5715 115.898C86.221 115.898 80.6272 114.894 75.427 112.997C67.923 110.251 63.1738 108.265 60.0431 106.948C57.3147 105.785 55.6698 105.095 54.383 104.825C53.8037 104.714 53.2731 104.626 52.7601 104.577C52.0261 103.326 51.3142 102.057 50.6951 100.739C50.275 99.868 49.8947 99.019 49.5189 98.2186C50.1866 98.1037 50.9162 98.0197 51.7387 98.0197C52.9591 98.0197 54.2503 98.1523 55.6919 98.4618C57.5579 98.8642 59.4196 99.6469 62.484 100.943C65.5705 102.216 70.2312 104.179 77.5849 106.855C82.113 108.504 86.955 109.375 91.5715 109.375C99.8096 109.375 105.448 106.766 107.402 104.175C107.981 103.419 107.849 101.721 104.674 97.9489C104.961 97.8162 105.226 97.6792 105.54 97.5244C107.252 96.6975 108.87 95.7822 110.427 94.8005C113.358 98.6387 115.821 103.68 112.47 108.146L112.465 108.155ZM104.36 95.1454C97.1653 98.6299 92.4382 100.637 89.3031 101.977C86.5747 103.136 84.9298 103.83 83.842 104.564C83.3069 104.922 82.8647 105.258 82.4623 105.59C81.0827 105.258 79.7517 104.856 78.4207 104.361C77.4876 104.029 76.6032 103.689 75.7587 103.379C76.7359 101.973 78.1775 100.545 80.3531 99.0942C81.9494 98.0241 83.7977 97.2414 86.8577 95.9237C89.9487 94.6325 94.6094 92.6426 101.645 89.2288C115.123 82.6888 121.561 71.2183 120.876 65.797C120.743 64.8374 119.474 63.7452 114.681 63.3649C114.791 63.073 114.88 62.7812 114.99 62.4938C115.631 60.6631 116.144 58.8324 116.564 56.9796C121.314 57.581 126.492 59.3675 127.221 64.948C128.331 73.584 119.938 87.5795 104.351 95.141L104.36 95.1454Z" fill="#444444"/>
<path d="M83.3027 68.1497C83.3027 69.7549 84.1562 71.2584 85.5579 72.0632C86.9641 72.868 88.7196 72.868 90.1744 72.0632C92.3809 70.8073 93.084 67.9994 91.8282 65.7929C90.9748 64.3867 89.4713 63.5377 87.8662 63.5377C85.3589 63.5377 83.3027 65.5939 83.3027 68.1542V68.1497Z" fill="#444444"/>
</svg>
