<svg width="135" height="135" viewBox="0 0 135 135" fill="none" xmlns="http://www.w3.org/2000/svg">
<path d="M67.4561 0.419006C30.2986 0.419006 0.17627 30.5413 0.17627 67.6989C0.17627 104.856 30.2986 134.979 67.4561 134.979C104.614 134.979 134.736 104.856 134.736 67.6989C134.736 30.5413 104.614 0.419006 67.4561 0.419006ZM101.386 21.8522C103.119 21.8522 104.693 22.4093 106.073 23.4794C112.847 28.7902 116.619 44.749 110.844 61.2649C108.182 68.9193 106.228 73.7613 104.941 76.954C103.809 79.7442 103.141 81.4423 102.876 82.7379C102.743 83.3614 102.655 83.9185 102.611 84.4138C101.434 85.1478 100.187 85.8421 98.8608 86.4877C97.972 86.9122 97.1274 87.3367 96.327 87.717C96.0573 86.019 96.1015 83.9893 96.6144 81.4246C97.0124 79.5276 97.7686 77.6305 99.0332 74.4821C100.302 71.3337 102.208 66.5801 104.83 59.0849C109.823 44.7578 106.449 31.9917 102.186 28.6664C101.938 28.4895 101.695 28.3966 101.386 28.3966C99.922 28.3966 97.9012 29.847 96.1457 31.3638C96.013 31.094 95.9025 30.8287 95.7477 30.5147C94.9473 28.7946 94.0364 27.1231 93.0592 25.4914C95.5001 23.5502 98.4097 21.8566 101.386 21.8566V21.8522ZM63.8611 8.39177C64.3696 8.30333 64.9268 8.28122 65.484 8.28122C73.7441 8.28122 86.3334 16.4707 93.413 31.691C96.8311 39.0314 98.8077 43.8513 100.117 47.0661C101.249 49.8342 101.938 51.5101 102.65 52.62C102.982 53.133 103.292 53.5796 103.606 53.9599C103.274 55.344 102.871 56.7501 102.363 58.1784C102.053 59.1159 101.739 59.987 101.43 60.8316C100.099 59.8499 98.7016 58.3774 97.2998 56.1885C96.2562 54.5834 95.5045 52.6864 94.2177 49.5601C92.9309 46.4116 90.9986 41.6846 87.6423 34.4724C81.9822 22.312 71.7233 14.7903 65.484 14.7903C65.1921 14.7903 64.9268 14.8124 64.6836 14.8345C63.7505 14.9716 62.6848 16.2628 62.309 21.1756C62.0216 21.0651 61.7076 20.9501 61.3981 20.8661C59.6647 20.2205 57.8694 19.7031 56.0696 19.2565C56.6489 14.4366 58.4221 9.12581 63.8655 8.38735L63.8611 8.39177ZM23.5153 28.233C27.1148 23.4573 35.1052 20.4902 44.409 20.4902C49.7639 20.4902 55.3312 21.494 60.5491 23.391C68.031 26.1149 72.7846 28.1225 75.9374 29.4402C78.6481 30.5811 80.2886 31.2709 81.5754 31.5362C82.1768 31.6689 82.734 31.7617 83.2425 31.806C83.9986 33.0574 84.6619 34.3265 85.2854 35.6442C85.7055 36.5374 86.0858 37.3864 86.4616 38.2133C85.816 38.3283 85.1307 38.3902 84.3524 38.3902C83.1098 38.3902 81.7788 38.2355 80.2665 37.9215C78.4004 37.5412 76.5388 36.7629 73.4744 35.4673C70.3879 34.1717 65.7272 32.2083 58.3735 29.5331C53.8675 27.8837 49.0299 27.0126 44.3869 27.0126C36.1488 27.0126 30.5108 29.6215 28.5563 32.2128C27.977 32.9468 28.1141 34.6669 31.2847 38.4389C30.9972 38.5715 30.7054 38.7086 30.4179 38.8634C28.7288 39.6682 27.0882 40.6056 25.5538 41.5873C22.6044 37.749 20.159 32.7036 23.5109 28.2419L23.5153 28.233ZM19.4073 79.2711C14.636 78.8466 9.52872 77.5333 8.72834 71.4177C7.61844 62.7817 16.0334 48.7862 31.5323 41.2689C38.7268 37.7844 43.4759 35.7769 46.6111 34.437C49.3394 33.2785 50.9844 32.5842 52.0722 31.8502C52.625 31.492 53.0671 31.1559 53.4695 30.8243C54.8226 31.1559 56.1758 31.5583 57.5112 32.0536C58.4442 32.3852 59.333 32.7213 60.1776 33.0353C59.2004 34.4414 57.7367 35.8697 55.5788 37.3201C53.9825 38.3681 52.1385 39.1729 49.0741 40.4685C45.9876 41.7642 41.3269 43.7496 34.2871 47.1634C20.8091 53.7034 14.3707 65.1518 15.0827 70.5731C15.2596 72.0677 16.5021 72.5807 21.322 72.8725C21.2115 73.2042 21.1009 73.5447 20.9638 73.8984C20.3448 75.6628 19.8362 77.4714 19.4117 79.2755L19.4073 79.2711ZM33.0844 114.377C31.351 114.377 29.6883 113.775 28.1805 112.59C21.406 107.302 17.6562 91.343 23.4092 74.8093C26.0933 67.155 28.0478 62.3129 29.3346 59.0982C30.4666 56.33 31.1343 54.632 31.3997 53.3408C31.5323 52.735 31.6207 52.1778 31.665 51.687C32.8412 50.953 34.0838 50.2366 35.4148 49.591C36.3036 49.1444 37.1481 48.742 37.9485 48.3617C38.2138 50.0597 38.1696 52.0894 37.6611 54.6541C37.2808 56.5511 36.5025 58.4482 35.2423 61.5745C33.9732 64.7229 32.0673 69.4765 29.4451 76.9717C24.4483 91.3032 27.8444 104.065 32.0894 107.39C32.6687 107.837 32.9783 107.837 33.1109 107.837C34.2872 107.837 36.1974 106.254 38.0635 104.556C38.2183 104.887 38.3509 105.179 38.5057 105.537C39.3061 107.235 40.1904 108.885 41.15 110.472C38.6162 112.657 36.0869 114.377 33.0888 114.377H33.0844ZM70.41 127.678C69.9015 127.744 69.3443 127.789 68.7871 127.789C60.527 127.789 47.9421 119.599 40.8581 104.401C37.4621 97.0561 35.4855 92.2185 34.1766 89.0259C33.0446 86.2356 32.3548 84.5597 31.6428 83.4454C31.3112 82.9103 30.9972 82.4858 30.7098 82.1055C31.0193 80.7215 31.3996 79.3153 31.9081 77.8649C32.2398 76.9496 32.5537 76.0784 32.8412 75.256C34.1722 76.2155 35.5695 77.6659 36.9934 79.8548C38.0369 81.482 38.7887 83.3791 40.0799 86.5054C41.3667 89.6538 43.2991 94.4074 46.6509 101.593C52.3154 113.731 62.5478 121.253 68.8137 121.253C69.079 121.253 69.3443 121.231 69.5875 121.209C70.4985 121.072 71.5863 119.78 71.9621 114.868C72.2717 114.978 72.5635 115.093 72.873 115.199C74.6064 115.845 76.4017 116.362 78.2015 116.809C77.6222 121.629 75.8711 126.94 70.4056 127.678H70.41ZM110.778 107.837C107.178 112.613 97.9454 115.58 89.8842 115.58C84.5337 115.58 78.9399 114.576 73.7397 112.679C66.2357 109.933 61.4865 107.947 58.3558 106.63C55.6275 105.467 53.9825 104.777 52.6957 104.507C52.1164 104.397 51.5858 104.308 51.0729 104.259C50.3388 103.008 49.6269 101.739 49.0078 100.421C48.5877 99.5501 48.2074 98.7011 47.8316 97.9007C48.4993 97.7858 49.2289 97.7017 50.0514 97.7017C51.2718 97.7017 52.5631 97.8344 54.0046 98.1439C55.8707 98.5463 57.7323 99.329 60.7967 100.625C63.8832 101.898 68.5439 103.861 75.8976 106.537C80.4257 108.186 85.2677 109.057 89.8842 109.057C98.1223 109.057 103.76 106.448 105.715 103.857C106.294 103.101 106.161 101.403 102.986 97.631C103.274 97.4983 103.539 97.3613 103.853 97.2065C105.564 96.3796 107.183 95.4642 108.739 94.4826C111.671 98.3208 114.134 103.362 110.782 107.828L110.778 107.837ZM102.672 94.8275C95.478 98.312 90.7509 100.32 87.6158 101.659C84.8874 102.818 83.2425 103.512 82.1547 104.246C81.6196 104.604 81.1774 104.94 80.775 105.272C79.3954 104.94 78.0644 104.538 76.7334 104.043C75.8003 103.711 74.916 103.371 74.0714 103.061C75.0486 101.655 76.4902 100.227 78.6657 98.7763C80.2665 97.7062 82.1105 96.9235 85.1705 95.6057C88.2614 94.3145 92.9221 92.3247 99.9574 88.9109C113.435 82.3709 119.874 70.9003 119.188 65.479C119.056 64.5195 117.787 63.4273 112.993 63.047C113.104 62.7551 113.192 62.4633 113.303 62.1759C113.944 60.3452 114.457 58.5145 114.877 56.6617C119.626 57.2631 124.804 59.0495 125.534 64.63C126.644 73.2661 118.251 87.2615 102.664 94.8231L102.672 94.8275Z" fill="#444444"/>
</svg>
