<svg width="136" height="136" viewBox="0 0 136 136" fill="none" xmlns="http://www.w3.org/2000/svg">
<path d="M68.0961 0.706116C30.9386 0.706116 0.816406 30.8283 0.816406 67.9858C0.816406 105.143 30.9386 135.266 68.0961 135.266C105.254 135.266 135.376 105.143 135.376 67.9858C135.376 30.8283 105.254 0.706116 68.0961 0.706116ZM102.026 22.1392C103.759 22.1392 105.333 22.6964 106.713 23.7665C113.487 29.0772 117.259 45.036 111.484 61.5519C108.822 69.2063 106.868 74.0483 105.581 77.2409C104.449 80.0312 103.781 81.7292 103.516 83.0248C103.383 83.6483 103.295 84.2055 103.251 84.7007C102.074 85.4348 100.827 86.129 99.5007 86.7746C98.6119 87.1991 97.7673 87.6236 96.967 88.0039C96.6972 86.3059 96.7414 84.2762 97.2544 81.7115C97.6524 79.8145 98.4085 77.9175 99.6732 74.7691C100.942 71.6207 102.848 66.8671 105.47 59.3719C110.463 45.0448 107.089 32.2787 102.826 28.9534C102.578 28.7766 102.335 28.6837 102.026 28.6837C100.562 28.6837 98.5412 30.1341 96.7856 31.6508C96.653 31.3811 96.5424 31.1158 96.3877 30.8018C95.5873 29.0817 94.6764 27.4102 93.6991 25.7785C96.1401 23.8373 99.0497 22.1437 102.026 22.1437V22.1392ZM64.5011 8.67886C65.0096 8.59042 65.5668 8.56831 66.124 8.56831C74.3841 8.56831 86.9734 16.7577 94.0529 31.978C97.4711 39.3184 99.4476 44.1384 100.757 47.3531C101.889 50.1212 102.578 51.7971 103.29 52.907C103.622 53.42 103.931 53.8666 104.245 54.2469C103.914 55.631 103.511 57.0371 103.003 58.4654C102.693 59.4029 102.379 60.274 102.07 61.1186C100.739 60.1369 99.3415 58.6644 97.9398 56.4755C96.8962 54.8704 96.1445 52.9734 94.8577 49.8471C93.5709 46.6987 91.6385 41.9716 88.2823 34.7594C82.6222 22.5991 72.3633 15.0774 66.124 15.0774C65.8321 15.0774 65.5668 15.0995 65.3236 15.1216C64.3905 15.2587 63.3249 16.5499 62.949 21.4627C62.6616 21.3521 62.3476 21.2372 62.0381 21.1531C60.3047 20.5075 58.5094 19.9902 56.7097 19.5436C57.2889 14.7236 59.0621 9.4129 64.5055 8.67444L64.5011 8.67886ZM24.1554 28.5201C27.7548 23.7444 35.7453 20.7773 45.049 20.7773C50.404 20.7773 55.9712 21.7811 61.1891 23.6781C68.671 26.402 73.4246 28.4095 76.5774 29.7273C79.2881 30.8681 80.9286 31.5579 82.2154 31.8233C82.8168 31.9559 83.3739 32.0488 83.8825 32.093C84.6386 33.3444 85.3019 34.6135 85.9254 35.9312C86.3455 36.8245 86.7257 37.6735 87.1016 38.5004C86.456 38.6154 85.7706 38.6773 84.9924 38.6773C83.7498 38.6773 82.4188 38.5225 80.9065 38.2085C79.0404 37.8282 77.1788 37.05 74.1144 35.7544C71.0279 34.4587 66.3672 32.4954 59.0135 29.8201C54.5076 28.1707 49.67 27.2996 45.0269 27.2996C36.7889 27.2996 31.1509 29.9086 29.1964 32.4998C28.6171 33.2339 28.7542 34.954 31.9248 38.7259C31.6373 38.8586 31.3454 38.9956 31.058 39.1504C29.3688 39.9552 27.7283 40.8927 26.1939 41.8743C23.2445 38.0361 20.7991 32.9907 24.151 28.5289L24.1554 28.5201ZM20.0474 79.558C15.2761 79.1335 10.1688 77.8202 9.36846 71.7047C8.25856 63.0686 16.6735 49.0732 32.1724 41.5559C39.3668 38.0715 44.116 36.0639 47.2511 34.724C49.9795 33.5655 51.6245 32.8713 52.7123 32.1372C53.265 31.779 53.7072 31.443 54.1096 31.1113C55.4627 31.443 56.8158 31.8454 58.1512 32.3406C59.0842 32.6723 59.9731 33.0083 60.8176 33.3223C59.8404 34.7285 58.3767 36.1568 56.2188 37.6072C54.6225 38.6551 52.7786 39.4599 49.7142 40.7556C46.6277 42.0512 41.9669 44.0366 34.9272 47.4504C21.4492 53.9904 15.0108 65.4388 15.7228 70.8601C15.8997 72.3547 17.1422 72.8677 21.9621 73.1595C21.8516 73.4911 21.741 73.8316 21.6039 74.1854C20.9848 75.9497 20.4763 77.7583 20.0518 79.5625L20.0474 79.558ZM33.7245 114.664C31.9911 114.664 30.3284 114.062 28.8205 112.877C22.0461 107.589 18.2963 91.6299 24.0493 75.0963C26.7334 67.4419 28.6879 62.5999 29.9747 59.3852C31.1067 56.617 31.7744 54.919 32.0397 53.6278C32.1724 53.022 32.2608 52.4649 32.305 51.974C33.4813 51.24 34.7238 50.5236 36.0548 49.878C36.9436 49.4314 37.7882 49.029 38.5886 48.6487C38.8539 50.3467 38.8097 52.3764 38.3011 54.9411C37.9209 56.8381 37.1426 58.7352 35.8824 61.8615C34.6133 65.0099 32.7074 69.7635 30.0852 77.2586C25.0884 91.5901 28.4845 104.352 32.7295 107.677C33.3088 108.124 33.6184 108.124 33.751 108.124C34.9272 108.124 36.8375 106.541 38.7036 104.843C38.8583 105.174 38.991 105.466 39.1458 105.824C39.9461 107.522 40.8305 109.172 41.7901 110.759C39.2563 112.944 36.727 114.664 33.7289 114.664H33.7245ZM71.05 127.965C70.5415 128.031 69.9843 128.075 69.4271 128.075C61.167 128.075 48.5821 119.886 41.4982 104.688C38.1021 97.3431 36.1256 92.5055 34.8167 89.3128C33.6846 86.5226 32.9948 84.8467 32.2829 83.7323C31.9513 83.1973 31.6373 82.7728 31.3499 82.3925C31.6594 81.0084 32.0397 79.6023 32.5482 78.1519C32.8799 77.2365 33.1938 76.3654 33.4812 75.5429C34.8122 76.5025 36.2096 77.9529 37.6334 80.1417C38.677 81.769 39.4287 83.666 40.7199 86.7923C42.0067 89.9407 43.9391 94.6943 47.291 101.88C52.9555 114.018 63.1878 121.54 69.4537 121.54C69.719 121.54 69.9843 121.518 70.2275 121.496C71.1385 121.359 72.2262 120.067 72.6021 115.155C72.9117 115.265 73.2035 115.38 73.513 115.486C75.2464 116.132 77.0417 116.649 78.8415 117.096C78.2622 121.916 76.5111 127.226 71.0456 127.965H71.05ZM111.418 108.124C107.818 112.899 98.5854 115.867 90.5242 115.867C85.1736 115.867 79.5799 114.863 74.3797 112.966C66.8757 110.22 62.1265 108.234 58.9958 106.917C56.2675 105.754 54.6225 105.064 53.3357 104.794C52.7564 104.683 52.2258 104.595 51.7129 104.546C50.9789 103.295 50.2669 102.026 49.6478 100.708C49.2278 99.837 48.8475 98.988 48.4716 98.1876C49.1393 98.0727 49.8689 97.9887 50.6914 97.9887C51.9119 97.9887 53.2031 98.1213 54.6446 98.4308C56.5107 98.8332 58.3723 99.6159 61.4367 100.912C64.5232 102.185 69.1839 104.148 76.5376 106.824C81.0657 108.473 85.9077 109.344 90.5242 109.344C98.7622 109.344 104.4 106.735 106.355 104.144C106.934 103.388 106.801 101.69 103.626 97.9179C103.914 97.7852 104.179 97.6482 104.493 97.4934C106.204 96.6665 107.823 95.7512 109.379 94.7695C112.311 98.6077 114.774 103.649 111.422 108.115L111.418 108.124ZM103.312 95.1144C96.1179 98.5989 91.3909 100.606 88.2557 101.946C85.5274 103.105 83.8824 103.799 82.7946 104.533C82.2596 104.891 81.8174 105.227 81.415 105.559C80.0354 105.227 78.7043 104.825 77.3733 104.33C76.4403 103.998 75.556 103.658 74.7114 103.348C75.6886 101.942 77.1301 100.514 79.3057 99.0632C80.9065 97.9931 82.7505 97.2104 85.8104 95.8927C88.9014 94.6015 93.562 92.6116 100.597 89.1979C114.075 82.6578 120.514 71.1873 119.828 65.766C119.696 64.8065 118.427 63.7142 113.633 63.334C113.744 63.0421 113.832 62.7503 113.943 62.4628C114.584 60.6322 115.097 58.8015 115.517 56.9487C120.266 57.5501 125.444 59.3365 126.174 64.917C127.284 73.5531 118.891 87.5485 103.304 95.11L103.312 95.1144Z" fill="#3E83D9"/>
</svg>
