<svg width="136" height="135" viewBox="0 0 136 135" fill="none" xmlns="http://www.w3.org/2000/svg">
<path d="M67.8803 -0.00622559C30.7228 -0.00622559 0.600586 30.116 0.600586 67.2735C0.600586 104.431 30.7228 134.553 67.8803 134.553C105.038 134.553 135.16 104.431 135.16 67.2735C135.16 30.116 105.038 -0.00622559 67.8803 -0.00622559ZM101.81 21.4269C103.543 21.4269 105.117 21.984 106.497 23.0542C113.271 28.3649 117.043 44.3237 111.268 60.8396C108.606 68.4939 106.652 73.336 105.365 76.5286C104.233 79.3188 103.565 81.0169 103.3 82.3125C103.167 82.936 103.079 83.4931 103.035 83.9884C101.858 84.7224 100.611 85.4167 99.2849 86.0623C98.3961 86.4868 97.5515 86.9113 96.7511 87.2916C96.4814 85.5936 96.5256 83.5639 97.0386 80.9992C97.4365 79.1022 98.1927 77.2051 99.4574 74.0567C100.726 70.9083 102.632 66.1547 105.255 58.6596C110.247 44.3325 106.873 31.5664 102.61 28.2411C102.363 28.0642 102.119 27.9713 101.81 27.9713C100.346 27.9713 98.3253 29.4217 96.5698 30.9385C96.4372 30.6687 96.3266 30.4034 96.1718 30.0894C95.3715 28.3693 94.4606 26.6978 93.4833 25.0661C95.9242 23.1249 98.8338 21.4313 101.81 21.4313V21.4269ZM64.2853 7.96652C64.7938 7.87808 65.351 7.85597 65.9081 7.85597C74.1683 7.85597 86.7576 16.0454 93.8371 31.2657C97.2552 38.6061 99.2318 43.426 100.541 46.6407C101.673 49.4089 102.363 51.0848 103.074 52.1947C103.406 52.7076 103.716 53.1543 104.03 53.5345C103.698 54.9186 103.296 56.3248 102.787 57.7531C102.478 58.6905 102.164 59.5616 101.854 60.4062C100.523 59.4246 99.1257 57.9521 97.7239 55.7632C96.6804 54.158 95.9286 52.261 94.6419 49.1347C93.3551 45.9863 91.4227 41.2593 88.0664 34.0471C82.4064 21.8868 72.1475 14.3651 65.9081 14.3651C65.6163 14.3651 65.351 14.3872 65.1077 14.4093C64.1747 14.5464 63.109 15.8376 62.7332 20.7503C62.4458 20.6398 62.1318 20.5248 61.8223 20.4408C60.0889 19.7952 58.2936 19.2778 56.4938 18.8312C57.0731 14.0113 58.8463 8.70056 64.2897 7.9621L64.2853 7.96652ZM23.9396 27.8077C27.539 23.032 35.5294 20.0649 44.8332 20.0649C50.1882 20.0649 55.7554 21.0687 60.9733 22.9657C68.4552 25.6896 73.2088 27.6972 76.3616 29.0149C79.0723 30.1558 80.7128 30.8456 81.9996 31.1109C82.601 31.2436 83.1581 31.3364 83.6666 31.3807C84.4228 32.6321 85.0861 33.9012 85.7096 35.2189C86.1297 36.1121 86.5099 36.9611 86.8858 37.788C86.2402 37.903 85.5548 37.9649 84.7766 37.9649C83.534 37.9649 82.2029 37.8101 80.6906 37.4962C78.8246 37.1159 76.963 36.3376 73.8986 35.042C70.812 33.7464 66.1514 31.783 58.7977 29.1078C54.2917 27.4584 49.4542 26.5873 44.8111 26.5873C36.5731 26.5873 30.9351 29.1962 28.9806 31.7875C28.4013 32.5215 28.5384 34.2416 31.7089 38.0136C31.4215 38.1462 31.1296 38.2833 30.8422 38.4381C29.153 39.2429 27.5125 40.1803 25.9781 41.162C23.0286 37.3237 20.5833 32.2783 23.9351 27.8166L23.9396 27.8077ZM19.8316 78.8457C15.0603 78.4212 9.95301 77.1079 9.15264 70.9923C8.04274 62.3563 16.4577 48.3609 31.9565 40.8436C39.151 37.3591 43.9002 35.3515 47.0353 34.0117C49.7636 32.8532 51.4086 32.1589 52.4964 31.4249C53.0492 31.0667 53.4913 30.7306 53.8937 30.399C55.2468 30.7306 56.6 31.133 57.9354 31.6283C58.8684 31.9599 59.7572 32.296 60.6018 32.61C59.6246 34.0161 58.1609 35.4444 56.003 36.8948C54.4067 37.9428 52.5628 38.7476 49.4984 40.0432C46.4118 41.3388 41.7511 43.3243 34.7114 46.738C21.2333 53.2781 14.795 64.7265 15.507 70.1477C15.6838 71.6424 16.9264 72.1553 21.7463 72.4472C21.6358 72.7788 21.5252 73.1193 21.3881 73.473C20.769 75.2374 20.2605 77.046 19.836 78.8501L19.8316 78.8457ZM33.5086 113.951C31.7752 113.951 30.1126 113.35 28.6047 112.165C21.8303 106.876 18.0805 90.9176 23.8334 74.3839C26.5176 66.7296 28.4721 61.8876 29.7588 58.6728C30.8909 55.9047 31.5586 54.2067 31.8239 52.9155C31.9566 52.3097 32.045 51.7525 32.0892 51.2617C33.2654 50.5276 34.508 49.8113 35.839 49.1657C36.7278 48.7191 37.5724 48.3167 38.3728 47.9364C38.6381 49.6344 38.5938 51.6641 38.0853 54.2288C37.705 56.1258 36.9268 58.0228 35.6665 61.1491C34.3974 64.2975 32.4916 69.0511 29.8694 76.5463C24.8726 90.8778 28.2686 103.639 32.5137 106.965C33.093 107.411 33.4025 107.411 33.5352 107.411C34.7114 107.411 36.6217 105.828 38.4877 104.13C38.6425 104.462 38.7752 104.754 38.9299 105.112C39.7303 106.81 40.6147 108.459 41.5742 110.047C39.0405 112.231 36.5111 113.951 33.5131 113.951H33.5086ZM70.8342 127.253C70.3257 127.319 69.7685 127.363 69.2113 127.363C60.9511 127.363 48.3663 119.174 41.2824 103.976C37.8863 96.6307 35.9097 91.7931 34.6008 88.6005C33.4688 85.8102 32.779 84.1343 32.0671 83.02C31.7354 82.4849 31.4215 82.0604 31.1341 81.6801C31.4436 80.2961 31.8239 78.8899 32.3324 77.4395C32.664 76.5242 32.978 75.6531 33.2654 74.8306C34.5964 75.7901 35.9937 77.2405 37.4176 79.4294C38.4612 81.0566 39.2129 82.9537 40.5041 86.08C41.7909 89.2284 43.7233 93.982 47.0751 101.168C52.7396 113.306 62.972 120.828 69.2379 120.828C69.5032 120.828 69.7685 120.805 70.0117 120.783C70.9226 120.646 72.0104 119.355 72.3863 114.442C72.6958 114.553 72.9876 114.668 73.2972 114.774C75.0306 115.419 76.8259 115.937 78.6256 116.383C78.0464 121.203 76.2953 126.514 70.8298 127.253H70.8342ZM111.202 107.411C107.603 112.187 98.3695 115.154 90.3083 115.154C84.9578 115.154 79.3641 114.15 74.1639 112.253C66.6599 109.507 61.9107 107.522 58.78 106.204C56.0517 105.041 54.4067 104.351 53.1199 104.082C52.5406 103.971 52.01 103.883 51.4971 103.834C50.763 102.583 50.0511 101.314 49.432 99.9958C49.0119 99.1247 48.6316 98.2757 48.2558 97.4753C48.9235 97.3603 49.6531 97.2763 50.4756 97.2763C51.696 97.2763 52.9873 97.409 54.4288 97.7185C56.2949 98.1209 58.1565 98.9036 61.2209 100.199C64.3074 101.473 68.9681 103.436 76.3218 106.111C80.8498 107.761 85.6918 108.632 90.3083 108.632C98.5464 108.632 104.184 106.023 106.139 103.432C106.718 102.675 106.585 100.977 103.411 97.2056C103.698 97.0729 103.963 96.9358 104.277 96.781C105.989 95.9541 107.607 95.0388 109.163 94.0571C112.095 97.8954 114.558 102.936 111.206 107.403L111.202 107.411ZM103.097 94.402C95.9021 97.8865 91.175 99.8941 88.0399 101.234C85.3116 102.392 83.6666 103.087 82.5788 103.821C82.0438 104.179 81.6016 104.515 81.1992 104.847C79.8195 104.515 78.4885 104.113 77.1575 103.617C76.2245 103.286 75.3401 102.945 74.4956 102.636C75.4728 101.23 76.9143 99.8012 79.0899 98.3508C80.6906 97.2807 82.5346 96.498 85.5946 95.1803C88.6855 93.8891 93.3462 91.8992 100.382 88.4855C113.86 81.9455 120.298 70.475 119.613 65.0537C119.48 64.0941 118.211 63.0019 113.417 62.6216C113.528 62.3298 113.616 62.0379 113.727 61.7505C114.368 59.9198 114.881 58.0891 115.301 56.2363C120.05 56.8377 125.228 58.6242 125.958 64.2047C127.068 72.8407 118.675 86.8361 103.088 94.3976L103.097 94.402Z" fill="white"/>
</svg>
