<svg width="144" height="144" viewBox="0 0 144 144" fill="none" xmlns="http://www.w3.org/2000/svg">
<path fill-rule="evenodd" clip-rule="evenodd" d="M71.7322 143.545C111.278 143.545 143.372 111.45 143.372 71.9046C143.372 32.3592 111.278 0.264709 71.7322 0.264709C32.1867 0.264709 0.0922852 32.3592 0.0922852 71.9046C0.0922852 111.45 32.1867 143.545 71.7322 143.545ZM35.91 48.9813C36.4849 76.9191 50.383 93.6827 74.8806 93.6827H76.3133V77.6354C85.3385 78.4933 92.0731 85.0864 94.797 93.5412H107.55C104.11 80.7883 94.943 73.7707 89.2121 71.1882C94.943 67.8939 102.969 59.8681 104.972 48.8353H93.3643C90.9278 57.719 83.4768 65.7404 76.3133 66.4568V48.9768H64.7057V79.926C57.5422 78.2059 48.517 69.4681 48.0836 48.9768H35.9056L35.91 48.9813Z" fill="#444444"/>
</svg>
