<svg width="145" height="144" viewBox="0 0 145 144" fill="none" xmlns="http://www.w3.org/2000/svg">
<path fill-rule="evenodd" clip-rule="evenodd" d="M72.3732 143.831C111.919 143.831 144.013 111.737 144.013 72.1916C144.013 32.6462 111.919 0.551819 72.3732 0.551819C32.8278 0.551819 0.733398 32.6462 0.733398 72.1916C0.733398 111.737 32.8278 143.831 72.3732 143.831ZM36.5511 49.2683C37.1259 77.206 51.0241 93.9696 75.5216 93.9696H76.9543V77.9224C85.9794 78.7803 92.7141 85.3734 95.438 93.8281H108.191C104.751 81.0752 95.5839 74.0576 89.8531 71.4752C95.5839 68.1809 103.61 60.1551 105.613 49.1223H94.0052C91.5688 58.006 84.1178 66.0274 76.9543 66.7438V49.2638H65.3467V80.213C58.1832 78.4928 49.158 69.7551 48.7247 49.2638H36.5466L36.5511 49.2683Z" fill="#3E83D9"/>
</svg>
