<svg width="144" height="145" viewBox="0 0 144 145" fill="none" xmlns="http://www.w3.org/2000/svg">
<path fill-rule="evenodd" clip-rule="evenodd" d="M72.1573 144.119C111.703 144.119 143.797 112.025 143.797 72.4792C143.797 32.9339 111.703 0.839478 72.1573 0.839478C32.612 0.839478 0.517578 32.9339 0.517578 72.4792C0.517578 112.025 32.612 144.119 72.1573 144.119ZM36.3352 49.5559C36.9101 77.4937 50.8082 94.2572 75.3057 94.2572H76.7384V78.21C85.7636 79.0679 92.4982 85.661 95.2221 94.1157H107.975C104.535 81.3629 95.368 74.3453 89.6372 71.7628C95.368 68.4685 103.394 60.4427 105.397 49.41H93.7894C91.3529 58.2936 83.902 66.315 76.7384 67.0314V49.5515H65.1309V80.5006C57.9673 78.7805 48.9422 70.0427 48.5088 49.5515H36.3308L36.3352 49.5559Z" fill="white"/>
</svg>
